G04 #@! TF.GenerationSoftware,KiCad,Pcbnew,9.0.0*
G04 #@! TF.CreationDate,2025-08-15T17:42:36+05:30*
G04 #@! TF.ProjectId,MAKEEN_Keypad_Test_PCB,4d414b45-454e-45f4-9b65-797061645f54,V1*
G04 #@! TF.SameCoordinates,Original*
G04 #@! TF.FileFunction,Copper,L2,Bot*
G04 #@! TF.FilePolarity,Positive*
%FSLAX46Y46*%
G04 Gerber Fmt 4.6, Leading zero omitted, Abs format (unit mm)*
G04 Created by KiCad (PCBNEW 9.0.0) date 2025-08-15 17:42:36*
%MOMM*%
%LPD*%
G01*
G04 APERTURE LIST*
G04 #@! TA.AperFunction,ComponentPad*
%ADD10C,2.400000*%
G04 #@! TD*
G04 #@! TA.AperFunction,ComponentPad*
%ADD11C,5.400000*%
G04 #@! TD*
G04 #@! TA.AperFunction,ComponentPad*
%ADD12R,1.700000X1.700000*%
G04 #@! TD*
G04 #@! TA.AperFunction,ComponentPad*
%ADD13O,1.700000X1.700000*%
G04 #@! TD*
G04 #@! TA.AperFunction,ViaPad*
%ADD14C,0.800000*%
G04 #@! TD*
G04 #@! TA.AperFunction,Conductor*
%ADD15C,0.381000*%
G04 #@! TD*
G04 APERTURE END LIST*
D10*
X122770000Y-84830000D03*
X122770000Y-89910000D03*
D11*
X169500000Y-115500000D03*
X120500000Y-57500000D03*
X169500000Y-57500000D03*
X120500000Y-115500000D03*
D12*
X168210000Y-62450000D03*
D13*
X170750000Y-62450000D03*
X168210000Y-64990000D03*
X170750000Y-64990000D03*
X168210000Y-67530000D03*
X170750000Y-67530000D03*
X168210000Y-70070000D03*
X170750000Y-70070000D03*
X168210000Y-72610000D03*
X170750000Y-72610000D03*
X168210000Y-75150000D03*
X170750000Y-75150000D03*
X168210000Y-77690000D03*
X170750000Y-77690000D03*
X168210000Y-80230000D03*
X170750000Y-80230000D03*
X168210000Y-82770000D03*
X170750000Y-82770000D03*
X168210000Y-85310000D03*
X170750000Y-85310000D03*
X168210000Y-87850000D03*
X170750000Y-87850000D03*
X168210000Y-90390000D03*
X170750000Y-90390000D03*
X168210000Y-92930000D03*
X170750000Y-92930000D03*
X168210000Y-95470000D03*
X170750000Y-95470000D03*
X168210000Y-98010000D03*
X170750000Y-98010000D03*
X168210000Y-100550000D03*
X170750000Y-100550000D03*
X168210000Y-103090000D03*
X170750000Y-103090000D03*
X168210000Y-105630000D03*
X170750000Y-105630000D03*
X168210000Y-108170000D03*
X170750000Y-108170000D03*
X168210000Y-110710000D03*
X170750000Y-110710000D03*
D14*
X147760000Y-57230000D03*
X133410000Y-59310000D03*
X135160000Y-72650000D03*
X122230000Y-72650000D03*
X120750000Y-69480000D03*
X128760000Y-97840000D03*
X162310000Y-77440000D03*
X148450000Y-72260000D03*
X127130000Y-69480000D03*
X128640000Y-72650000D03*
X136810000Y-102860000D03*
X144550000Y-56000000D03*
X142290000Y-72260000D03*
X130750000Y-69480000D03*
X131860000Y-72650000D03*
X140970000Y-105890000D03*
X146820000Y-67170000D03*
X146500000Y-77410000D03*
X145250000Y-72260000D03*
X154400000Y-80230000D03*
X143390000Y-62340000D03*
X125580000Y-72650000D03*
X130780000Y-62390000D03*
X133180000Y-100710000D03*
X164020000Y-76540000D03*
X151790000Y-72260000D03*
X159240000Y-66630000D03*
X158670000Y-75220000D03*
D15*
X144770000Y-108170000D02*
X168210000Y-108170000D01*
X147760000Y-57230000D02*
X147570000Y-57040000D01*
X135680000Y-57040000D02*
X133410000Y-59310000D01*
X147570000Y-57040000D02*
X135680000Y-57040000D01*
X135160000Y-98560000D02*
X144770000Y-108170000D01*
X135160000Y-72650000D02*
X135160000Y-98560000D01*
X122230000Y-79100000D02*
X124940000Y-81810000D01*
X122230000Y-72650000D02*
X122230000Y-79100000D01*
X124940000Y-81810000D02*
X124940000Y-94020000D01*
X124940000Y-94020000D02*
X128760000Y-97840000D01*
X148450000Y-72260000D02*
X148450000Y-75580000D01*
X150310000Y-77440000D02*
X162310000Y-77440000D01*
X148450000Y-75580000D02*
X150310000Y-77440000D01*
X128640000Y-72650000D02*
X128640000Y-94690000D01*
X134750000Y-56000000D02*
X127120000Y-63630000D01*
X128640000Y-94690000D02*
X136810000Y-102860000D01*
X144550000Y-56000000D02*
X134750000Y-56000000D01*
X127120000Y-69470000D02*
X127130000Y-69480000D01*
X127120000Y-63630000D02*
X127120000Y-69470000D01*
X146090000Y-78480000D02*
X164880000Y-78480000D01*
X164880000Y-78480000D02*
X168210000Y-75150000D01*
X142290000Y-72260000D02*
X142290000Y-74680000D01*
X142290000Y-74680000D02*
X146090000Y-78480000D01*
X131860000Y-96780000D02*
X140970000Y-105890000D01*
X131860000Y-72650000D02*
X131860000Y-96780000D01*
X130750000Y-69460000D02*
X130750000Y-69480000D01*
X133040000Y-67170000D02*
X130750000Y-69460000D01*
X146820000Y-67170000D02*
X133040000Y-67170000D01*
X154400000Y-80230000D02*
X168210000Y-80230000D01*
X145250000Y-72260000D02*
X145250000Y-76160000D01*
X145250000Y-76160000D02*
X146500000Y-77410000D01*
X130830000Y-62340000D02*
X130780000Y-62390000D01*
X125580000Y-93110000D02*
X133180000Y-100710000D01*
X143390000Y-62340000D02*
X130830000Y-62340000D01*
X125580000Y-72650000D02*
X125580000Y-93110000D01*
X151790000Y-72390000D02*
X151790000Y-74900000D01*
X151790000Y-74900000D02*
X153430000Y-76540000D01*
X153430000Y-76540000D02*
X164020000Y-76540000D01*
X158670000Y-75220000D02*
X158670000Y-67200000D01*
X158670000Y-67200000D02*
X159240000Y-66630000D01*
G04 #@! TA.AperFunction,Conductor*
G36*
X168291437Y-54320185D02*
G01*
X168337192Y-54372989D01*
X168347136Y-54442147D01*
X168318111Y-54505703D01*
X168275998Y-54536064D01*
X168276427Y-54536954D01*
X167949420Y-54694432D01*
X167645045Y-54885684D01*
X167363997Y-55109811D01*
X167109811Y-55363997D01*
X166885684Y-55645045D01*
X166694432Y-55949420D01*
X166538465Y-56273288D01*
X166419741Y-56612580D01*
X166419737Y-56612592D01*
X166339748Y-56963048D01*
X166339746Y-56963064D01*
X166299500Y-57320259D01*
X166299500Y-57679740D01*
X166339746Y-58036935D01*
X166339748Y-58036951D01*
X166419737Y-58387407D01*
X166419741Y-58387419D01*
X166538465Y-58726711D01*
X166694432Y-59050579D01*
X166694434Y-59050582D01*
X166885685Y-59354956D01*
X167109812Y-59636003D01*
X167363997Y-59890188D01*
X167645044Y-60114315D01*
X167949418Y-60305566D01*
X168273292Y-60461536D01*
X168528119Y-60550703D01*
X168612580Y-60580258D01*
X168612592Y-60580262D01*
X168963052Y-60660252D01*
X169320260Y-60700499D01*
X169320261Y-60700500D01*
X169320264Y-60700500D01*
X169679739Y-60700500D01*
X169679739Y-60700499D01*
X170036948Y-60660252D01*
X170387408Y-60580262D01*
X170726708Y-60461536D01*
X171050582Y-60305566D01*
X171354956Y-60114315D01*
X171636003Y-59890188D01*
X171890188Y-59636003D01*
X172114315Y-59354956D01*
X172305566Y-59050582D01*
X172461536Y-58726708D01*
X172463046Y-58723573D01*
X172464190Y-58724123D01*
X172504760Y-58673759D01*
X172571050Y-58651682D01*
X172638753Y-58668948D01*
X172686373Y-58720076D01*
X172699500Y-58775602D01*
X172699500Y-114224397D01*
X172679815Y-114291436D01*
X172627011Y-114337191D01*
X172557853Y-114347135D01*
X172494297Y-114318110D01*
X172463931Y-114276000D01*
X172463046Y-114276427D01*
X172305567Y-113949420D01*
X172305566Y-113949418D01*
X172114315Y-113645044D01*
X171890188Y-113363997D01*
X171636003Y-113109812D01*
X171354956Y-112885685D01*
X171050582Y-112694434D01*
X171050579Y-112694432D01*
X170726711Y-112538465D01*
X170387419Y-112419741D01*
X170387407Y-112419737D01*
X170036951Y-112339748D01*
X170036935Y-112339746D01*
X169679740Y-112299500D01*
X169679736Y-112299500D01*
X169320264Y-112299500D01*
X169320259Y-112299500D01*
X168963064Y-112339746D01*
X168963048Y-112339748D01*
X168612592Y-112419737D01*
X168612580Y-112419741D01*
X168273288Y-112538465D01*
X167949420Y-112694432D01*
X167645045Y-112885684D01*
X167363997Y-113109811D01*
X167109811Y-113363997D01*
X166885684Y-113645045D01*
X166694432Y-113949420D01*
X166538465Y-114273288D01*
X166419741Y-114612580D01*
X166419737Y-114612592D01*
X166339748Y-114963048D01*
X166339746Y-114963064D01*
X166299500Y-115320259D01*
X166299500Y-115679740D01*
X166339746Y-116036935D01*
X166339748Y-116036951D01*
X166419737Y-116387407D01*
X166419741Y-116387419D01*
X166538465Y-116726711D01*
X166694432Y-117050579D01*
X166694434Y-117050582D01*
X166885685Y-117354956D01*
X167109812Y-117636003D01*
X167363997Y-117890188D01*
X167645044Y-118114315D01*
X167949418Y-118305566D01*
X167949420Y-118305567D01*
X168276427Y-118463046D01*
X168275876Y-118464190D01*
X168326241Y-118504760D01*
X168348318Y-118571050D01*
X168331052Y-118638753D01*
X168279924Y-118686373D01*
X168224398Y-118699500D01*
X121775602Y-118699500D01*
X121708563Y-118679815D01*
X121662808Y-118627011D01*
X121652864Y-118557853D01*
X121681889Y-118494297D01*
X121724001Y-118463935D01*
X121723573Y-118463046D01*
X121843839Y-118405128D01*
X122050582Y-118305566D01*
X122354956Y-118114315D01*
X122636003Y-117890188D01*
X122890188Y-117636003D01*
X123114315Y-117354956D01*
X123305566Y-117050582D01*
X123461536Y-116726708D01*
X123580262Y-116387408D01*
X123660252Y-116036948D01*
X123700500Y-115679736D01*
X123700500Y-115320264D01*
X123660252Y-114963052D01*
X123580262Y-114612592D01*
X123461536Y-114273292D01*
X123305566Y-113949418D01*
X123114315Y-113645044D01*
X122890188Y-113363997D01*
X122636003Y-113109812D01*
X122354956Y-112885685D01*
X122050582Y-112694434D01*
X122050579Y-112694432D01*
X121726711Y-112538465D01*
X121387419Y-112419741D01*
X121387407Y-112419737D01*
X121036951Y-112339748D01*
X121036935Y-112339746D01*
X120679740Y-112299500D01*
X120679736Y-112299500D01*
X120320264Y-112299500D01*
X120320259Y-112299500D01*
X119963064Y-112339746D01*
X119963048Y-112339748D01*
X119612592Y-112419737D01*
X119612580Y-112419741D01*
X119273288Y-112538465D01*
X118949420Y-112694432D01*
X118645045Y-112885684D01*
X118363997Y-113109811D01*
X118109811Y-113363997D01*
X117885684Y-113645045D01*
X117694432Y-113949420D01*
X117536954Y-114276427D01*
X117535814Y-114275878D01*
X117495219Y-114326254D01*
X117428925Y-114348318D01*
X117361226Y-114331038D01*
X117313616Y-114279901D01*
X117300500Y-114224397D01*
X117300500Y-84718549D01*
X121069500Y-84718549D01*
X121069500Y-84941450D01*
X121069501Y-84941466D01*
X121098594Y-85162452D01*
X121098595Y-85162457D01*
X121098596Y-85162463D01*
X121098597Y-85162465D01*
X121156290Y-85377780D01*
X121156293Y-85377790D01*
X121241593Y-85583722D01*
X121241595Y-85583726D01*
X121353052Y-85776774D01*
X121353057Y-85776780D01*
X121353058Y-85776782D01*
X121488751Y-85953622D01*
X121488757Y-85953629D01*
X121646370Y-86111242D01*
X121646376Y-86111247D01*
X121823226Y-86246948D01*
X122016274Y-86358405D01*
X122222219Y-86443710D01*
X122437537Y-86501404D01*
X122658543Y-86530500D01*
X122658550Y-86530500D01*
X122881450Y-86530500D01*
X122881457Y-86530500D01*
X123102463Y-86501404D01*
X123317781Y-86443710D01*
X123523726Y-86358405D01*
X123716774Y-86246948D01*
X123893624Y-86111247D01*
X123958483Y-86046388D01*
X124037319Y-85967553D01*
X124098642Y-85934068D01*
X124168334Y-85939052D01*
X124224267Y-85980924D01*
X124248684Y-86046388D01*
X124249000Y-86055234D01*
X124249000Y-88684766D01*
X124229315Y-88751805D01*
X124176511Y-88797560D01*
X124107353Y-88807504D01*
X124043797Y-88778479D01*
X124037319Y-88772447D01*
X123893629Y-88628757D01*
X123893622Y-88628751D01*
X123716782Y-88493058D01*
X123716780Y-88493057D01*
X123716774Y-88493052D01*
X123523726Y-88381595D01*
X123523722Y-88381593D01*
X123317790Y-88296293D01*
X123317783Y-88296291D01*
X123317781Y-88296290D01*
X123102463Y-88238596D01*
X123102457Y-88238595D01*
X123102452Y-88238594D01*
X122881466Y-88209501D01*
X122881463Y-88209500D01*
X122881457Y-88209500D01*
X122658543Y-88209500D01*
X122658537Y-88209500D01*
X122658533Y-88209501D01*
X122437547Y-88238594D01*
X122437540Y-88238595D01*
X122437537Y-88238596D01*
X122222219Y-88296290D01*
X122222209Y-88296293D01*
X122016277Y-88381593D01*
X122016273Y-88381595D01*
X121823226Y-88493052D01*
X121823217Y-88493058D01*
X121646377Y-88628751D01*
X121646370Y-88628757D01*
X121488757Y-88786370D01*
X121488751Y-88786377D01*
X121353058Y-88963217D01*
X121353052Y-88963226D01*
X121241595Y-89156273D01*
X121241593Y-89156277D01*
X121156293Y-89362209D01*
X121156290Y-89362219D01*
X121098597Y-89577534D01*
X121098594Y-89577547D01*
X121069501Y-89798533D01*
X121069500Y-89798549D01*
X121069500Y-90021450D01*
X121069501Y-90021466D01*
X121098594Y-90242452D01*
X121098595Y-90242457D01*
X121098596Y-90242463D01*
X121098597Y-90242465D01*
X121156290Y-90457780D01*
X121156293Y-90457790D01*
X121241593Y-90663722D01*
X121241595Y-90663726D01*
X121353052Y-90856774D01*
X121353057Y-90856780D01*
X121353058Y-90856782D01*
X121488751Y-91033622D01*
X121488757Y-91033629D01*
X121646370Y-91191242D01*
X121646376Y-91191247D01*
X121823226Y-91326948D01*
X122016274Y-91438405D01*
X122222219Y-91523710D01*
X122437537Y-91581404D01*
X122658543Y-91610500D01*
X122658550Y-91610500D01*
X122881450Y-91610500D01*
X122881457Y-91610500D01*
X123102463Y-91581404D01*
X123317781Y-91523710D01*
X123523726Y-91438405D01*
X123716774Y-91326948D01*
X123893624Y-91191247D01*
X123958483Y-91126388D01*
X124037319Y-91047553D01*
X124098642Y-91014068D01*
X124168334Y-91019052D01*
X124224267Y-91060924D01*
X124248684Y-91126388D01*
X124249000Y-91135234D01*
X124249000Y-93951943D01*
X124249000Y-94088057D01*
X124249000Y-94088059D01*
X124248999Y-94088059D01*
X124275553Y-94221551D01*
X124275556Y-94221561D01*
X124327642Y-94347309D01*
X124327644Y-94347312D01*
X124403263Y-94460485D01*
X124403269Y-94460492D01*
X127829929Y-97887150D01*
X127863414Y-97948473D01*
X127863865Y-97950639D01*
X127894104Y-98102659D01*
X127894106Y-98102667D01*
X127961983Y-98266540D01*
X127961990Y-98266553D01*
X128060535Y-98414034D01*
X128060538Y-98414038D01*
X128185961Y-98539461D01*
X128185965Y-98539464D01*
X128333446Y-98638009D01*
X128333459Y-98638016D01*
X128456363Y-98688923D01*
X128497334Y-98705894D01*
X128497336Y-98705894D01*
X128497341Y-98705896D01*
X128671304Y-98740499D01*
X128671307Y-98740500D01*
X128671309Y-98740500D01*
X128848693Y-98740500D01*
X128848694Y-98740499D01*
X128906682Y-98728964D01*
X129022658Y-98705896D01*
X129022661Y-98705894D01*
X129022666Y-98705894D01*
X129186547Y-98638013D01*
X129334035Y-98539464D01*
X129459464Y-98414035D01*
X129554704Y-98271498D01*
X129608316Y-98226694D01*
X129677641Y-98217987D01*
X129740669Y-98248141D01*
X129745487Y-98252709D01*
X132249929Y-100757151D01*
X132283414Y-100818474D01*
X132283865Y-100820640D01*
X132314104Y-100972659D01*
X132314106Y-100972667D01*
X132381983Y-101136540D01*
X132381990Y-101136553D01*
X132480535Y-101284034D01*
X132480538Y-101284038D01*
X132605961Y-101409461D01*
X132605965Y-101409464D01*
X132753446Y-101508009D01*
X132753459Y-101508016D01*
X132876363Y-101558923D01*
X132917334Y-101575894D01*
X132917336Y-101575894D01*
X132917341Y-101575896D01*
X133091304Y-101610499D01*
X133091307Y-101610500D01*
X133091309Y-101610500D01*
X133268693Y-101610500D01*
X133268694Y-101610499D01*
X133326682Y-101598964D01*
X133442658Y-101575896D01*
X133442661Y-101575894D01*
X133442666Y-101575894D01*
X133606547Y-101508013D01*
X133754035Y-101409464D01*
X133879464Y-101284035D01*
X133946666Y-101183461D01*
X134000278Y-101138655D01*
X134069603Y-101129948D01*
X134132630Y-101160102D01*
X134137449Y-101164670D01*
X135879929Y-102907150D01*
X135913414Y-102968473D01*
X135913865Y-102970639D01*
X135944104Y-103122659D01*
X135944106Y-103122667D01*
X136011983Y-103286540D01*
X136011990Y-103286553D01*
X136110535Y-103434034D01*
X136110538Y-103434038D01*
X136235961Y-103559461D01*
X136235965Y-103559464D01*
X136383446Y-103658009D01*
X136383459Y-103658016D01*
X136506363Y-103708923D01*
X136547334Y-103725894D01*
X136547336Y-103725894D01*
X136547341Y-103725896D01*
X136721304Y-103760499D01*
X136721307Y-103760500D01*
X136721309Y-103760500D01*
X136898693Y-103760500D01*
X136898694Y-103760499D01*
X136956682Y-103748964D01*
X137072658Y-103725896D01*
X137072661Y-103725894D01*
X137072666Y-103725894D01*
X137236547Y-103658013D01*
X137384035Y-103559464D01*
X137435459Y-103508039D01*
X137496778Y-103474556D01*
X137566469Y-103479539D01*
X137610819Y-103508041D01*
X140039929Y-105937150D01*
X140073414Y-105998473D01*
X140073865Y-106000639D01*
X140104104Y-106152659D01*
X140104106Y-106152667D01*
X140171983Y-106316540D01*
X140171990Y-106316553D01*
X140270535Y-106464034D01*
X140270538Y-106464038D01*
X140395961Y-106589461D01*
X140395965Y-106589464D01*
X140543446Y-106688009D01*
X140543459Y-106688016D01*
X140666363Y-106738923D01*
X140707334Y-106755894D01*
X140707336Y-106755894D01*
X140707341Y-106755896D01*
X140881304Y-106790499D01*
X140881307Y-106790500D01*
X140881309Y-106790500D01*
X141058693Y-106790500D01*
X141058694Y-106790499D01*
X141116682Y-106778964D01*
X141232658Y-106755896D01*
X141232661Y-106755894D01*
X141232666Y-106755894D01*
X141396547Y-106688013D01*
X141544035Y-106589464D01*
X141669464Y-106464035D01*
X141752688Y-106339483D01*
X141806300Y-106294678D01*
X141875625Y-106285971D01*
X141938653Y-106316126D01*
X141943471Y-106320693D01*
X144329507Y-108706730D01*
X144329514Y-108706736D01*
X144442687Y-108782355D01*
X144442690Y-108782357D01*
X144543224Y-108823999D01*
X144568443Y-108834445D01*
X144568447Y-108834445D01*
X144568448Y-108834446D01*
X144701939Y-108861000D01*
X144701942Y-108861000D01*
X166979550Y-108861000D01*
X167046589Y-108880685D01*
X167079869Y-108912115D01*
X167179896Y-109049792D01*
X167330213Y-109200109D01*
X167502179Y-109325048D01*
X167502181Y-109325049D01*
X167502184Y-109325051D01*
X167691588Y-109421557D01*
X167893757Y-109487246D01*
X168103713Y-109520500D01*
X168103714Y-109520500D01*
X168316286Y-109520500D01*
X168316287Y-109520500D01*
X168526243Y-109487246D01*
X168728412Y-109421557D01*
X168917816Y-109325051D01*
X168939789Y-109309086D01*
X169089786Y-109200109D01*
X169089788Y-109200106D01*
X169089792Y-109200104D01*
X169240104Y-109049792D01*
X169240106Y-109049788D01*
X169240109Y-109049786D01*
X169349086Y-108899789D01*
X169365051Y-108877816D01*
X169369514Y-108869054D01*
X169417488Y-108818259D01*
X169485308Y-108801463D01*
X169551444Y-108823999D01*
X169590486Y-108869056D01*
X169594951Y-108877820D01*
X169719890Y-109049786D01*
X169870213Y-109200109D01*
X170042182Y-109325050D01*
X170050946Y-109329516D01*
X170101742Y-109377491D01*
X170118536Y-109445312D01*
X170095998Y-109511447D01*
X170050946Y-109550484D01*
X170042182Y-109554949D01*
X169870213Y-109679890D01*
X169719890Y-109830213D01*
X169594951Y-110002179D01*
X169498444Y-110191585D01*
X169432753Y-110393760D01*
X169399500Y-110603713D01*
X169399500Y-110816286D01*
X169432753Y-111026239D01*
X169498444Y-111228414D01*
X169594951Y-111417820D01*
X169719890Y-111589786D01*
X169870213Y-111740109D01*
X170042179Y-111865048D01*
X170042181Y-111865049D01*
X170042184Y-111865051D01*
X170231588Y-111961557D01*
X170433757Y-112027246D01*
X170643713Y-112060500D01*
X170643714Y-112060500D01*
X170856286Y-112060500D01*
X170856287Y-112060500D01*
X171066243Y-112027246D01*
X171268412Y-111961557D01*
X171457816Y-111865051D01*
X171479789Y-111849086D01*
X171629786Y-111740109D01*
X171629788Y-111740106D01*
X171629792Y-111740104D01*
X171780104Y-111589792D01*
X171780106Y-111589788D01*
X171780109Y-111589786D01*
X171905048Y-111417820D01*
X171905047Y-111417820D01*
X171905051Y-111417816D01*
X172001557Y-111228412D01*
X172067246Y-111026243D01*
X172100500Y-110816287D01*
X172100500Y-110603713D01*
X172067246Y-110393757D01*
X172001557Y-110191588D01*
X171905051Y-110002184D01*
X171905049Y-110002181D01*
X171905048Y-110002179D01*
X171780109Y-109830213D01*
X171629786Y-109679890D01*
X171457820Y-109554951D01*
X171457115Y-109554591D01*
X171449054Y-109550485D01*
X171398259Y-109502512D01*
X171381463Y-109434692D01*
X171403999Y-109368556D01*
X171449054Y-109329515D01*
X171457816Y-109325051D01*
X171479789Y-109309086D01*
X171629786Y-109200109D01*
X171629788Y-109200106D01*
X171629792Y-109200104D01*
X171780104Y-109049792D01*
X171780106Y-109049788D01*
X171780109Y-109049786D01*
X171889086Y-108899789D01*
X171905051Y-108877816D01*
X172001557Y-108688412D01*
X172067246Y-108486243D01*
X172100500Y-108276287D01*
X172100500Y-108063713D01*
X172067246Y-107853757D01*
X172001557Y-107651588D01*
X171905051Y-107462184D01*
X171905049Y-107462181D01*
X171905048Y-107462179D01*
X171780109Y-107290213D01*
X171629786Y-107139890D01*
X171457820Y-107014951D01*
X171457115Y-107014591D01*
X171449054Y-107010485D01*
X171398259Y-106962512D01*
X171381463Y-106894692D01*
X171403999Y-106828556D01*
X171449054Y-106789515D01*
X171457816Y-106785051D01*
X171497945Y-106755896D01*
X171629786Y-106660109D01*
X171629788Y-106660106D01*
X171629792Y-106660104D01*
X171780104Y-106509792D01*
X171780106Y-106509788D01*
X171780109Y-106509786D01*
X171905048Y-106337820D01*
X171905047Y-106337820D01*
X171905051Y-106337816D01*
X172001557Y-106148412D01*
X172067246Y-105946243D01*
X172100500Y-105736287D01*
X172100500Y-105523713D01*
X172067246Y-105313757D01*
X172001557Y-105111588D01*
X171905051Y-104922184D01*
X171905049Y-104922181D01*
X171905048Y-104922179D01*
X171780109Y-104750213D01*
X171629786Y-104599890D01*
X171457820Y-104474951D01*
X171268414Y-104378444D01*
X171268413Y-104378443D01*
X171268412Y-104378443D01*
X171066243Y-104312754D01*
X171066241Y-104312753D01*
X171066240Y-104312753D01*
X170904957Y-104287208D01*
X170856287Y-104279500D01*
X170643713Y-104279500D01*
X170595042Y-104287208D01*
X170433760Y-104312753D01*
X170231585Y-104378444D01*
X170042179Y-104474951D01*
X169870213Y-104599890D01*
X169719890Y-104750213D01*
X169594949Y-104922182D01*
X169590484Y-104930946D01*
X169542509Y-104981742D01*
X169474688Y-104998536D01*
X169408553Y-104975998D01*
X169369516Y-104930946D01*
X169365050Y-104922182D01*
X169240109Y-104750213D01*
X169089786Y-104599890D01*
X168917820Y-104474951D01*
X168917115Y-104474591D01*
X168909054Y-104470485D01*
X168858259Y-104422512D01*
X168841463Y-104354692D01*
X168863999Y-104288556D01*
X168909054Y-104249515D01*
X168917816Y-104245051D01*
X168939789Y-104229086D01*
X169089786Y-104120109D01*
X169089788Y-104120106D01*
X169089792Y-104120104D01*
X169240104Y-103969792D01*
X169240106Y-103969788D01*
X169240109Y-103969786D01*
X169365048Y-103797820D01*
X169365047Y-103797820D01*
X169365051Y-103797816D01*
X169461557Y-103608412D01*
X169527246Y-103406243D01*
X169560500Y-103196287D01*
X169560500Y-102983713D01*
X169527246Y-102773757D01*
X169461557Y-102571588D01*
X169365051Y-102382184D01*
X169365049Y-102382181D01*
X169365048Y-102382179D01*
X169240109Y-102210213D01*
X169089786Y-102059890D01*
X168917820Y-101934951D01*
X168917115Y-101934591D01*
X168909054Y-101930485D01*
X168858259Y-101882512D01*
X168841463Y-101814692D01*
X168863999Y-101748556D01*
X168909054Y-101709515D01*
X168917816Y-101705051D01*
X168939789Y-101689086D01*
X169089786Y-101580109D01*
X169089788Y-101580106D01*
X169089792Y-101580104D01*
X169240104Y-101429792D01*
X169240106Y-101429788D01*
X169240109Y-101429786D01*
X169365048Y-101257820D01*
X169365047Y-101257820D01*
X169365051Y-101257816D01*
X169369514Y-101249054D01*
X169417488Y-101198259D01*
X169485308Y-101181463D01*
X169551444Y-101203999D01*
X169590486Y-101249056D01*
X169594951Y-101257820D01*
X169719890Y-101429786D01*
X169870213Y-101580109D01*
X170042179Y-101705048D01*
X170042181Y-101705049D01*
X170042184Y-101705051D01*
X170231588Y-101801557D01*
X170433757Y-101867246D01*
X170643713Y-101900500D01*
X170643714Y-101900500D01*
X170856286Y-101900500D01*
X170856287Y-101900500D01*
X171066243Y-101867246D01*
X171268412Y-101801557D01*
X171457816Y-101705051D01*
X171479789Y-101689086D01*
X171629786Y-101580109D01*
X171629788Y-101580106D01*
X171629792Y-101580104D01*
X171780104Y-101429792D01*
X171780106Y-101429788D01*
X171780109Y-101429786D01*
X171905048Y-101257820D01*
X171905047Y-101257820D01*
X171905051Y-101257816D01*
X172001557Y-101068412D01*
X172067246Y-100866243D01*
X172100500Y-100656287D01*
X172100500Y-100443713D01*
X172067246Y-100233757D01*
X172001557Y-100031588D01*
X171905051Y-99842184D01*
X171905049Y-99842181D01*
X171905048Y-99842179D01*
X171780109Y-99670213D01*
X171629786Y-99519890D01*
X171457820Y-99394951D01*
X171268414Y-99298444D01*
X171268413Y-99298443D01*
X171268412Y-99298443D01*
X171066243Y-99232754D01*
X171066241Y-99232753D01*
X171066240Y-99232753D01*
X170904957Y-99207208D01*
X170856287Y-99199500D01*
X170643713Y-99199500D01*
X170595042Y-99207208D01*
X170433760Y-99232753D01*
X170231585Y-99298444D01*
X170042179Y-99394951D01*
X169870213Y-99519890D01*
X169719890Y-99670213D01*
X169594949Y-99842182D01*
X169590484Y-99850946D01*
X169542509Y-99901742D01*
X169474688Y-99918536D01*
X169408553Y-99895998D01*
X169369516Y-99850946D01*
X169365050Y-99842182D01*
X169240109Y-99670213D01*
X169089786Y-99519890D01*
X168917820Y-99394951D01*
X168917115Y-99394591D01*
X168909054Y-99390485D01*
X168858259Y-99342512D01*
X168841463Y-99274692D01*
X168863999Y-99208556D01*
X168909054Y-99169515D01*
X168917816Y-99165051D01*
X168939789Y-99149086D01*
X169089786Y-99040109D01*
X169089788Y-99040106D01*
X169089792Y-99040104D01*
X169240104Y-98889792D01*
X169240106Y-98889788D01*
X169240109Y-98889786D01*
X169365048Y-98717820D01*
X169365047Y-98717820D01*
X169365051Y-98717816D01*
X169461557Y-98528412D01*
X169527246Y-98326243D01*
X169560500Y-98116287D01*
X169560500Y-97903713D01*
X169527246Y-97693757D01*
X169461557Y-97491588D01*
X169365051Y-97302184D01*
X169365049Y-97302181D01*
X169365048Y-97302179D01*
X169240109Y-97130213D01*
X169089786Y-96979890D01*
X168917820Y-96854951D01*
X168917115Y-96854591D01*
X168909054Y-96850485D01*
X168858259Y-96802512D01*
X168841463Y-96734692D01*
X168863999Y-96668556D01*
X168909054Y-96629515D01*
X168917816Y-96625051D01*
X168939789Y-96609086D01*
X169089786Y-96500109D01*
X169089788Y-96500106D01*
X169089792Y-96500104D01*
X169240104Y-96349792D01*
X169240106Y-96349788D01*
X169240109Y-96349786D01*
X169365048Y-96177820D01*
X169365047Y-96177820D01*
X169365051Y-96177816D01*
X169369514Y-96169054D01*
X169417488Y-96118259D01*
X169485308Y-96101463D01*
X169551444Y-96123999D01*
X169590486Y-96169056D01*
X169594951Y-96177820D01*
X169719890Y-96349786D01*
X169870213Y-96500109D01*
X170042179Y-96625048D01*
X170042181Y-96625049D01*
X170042184Y-96625051D01*
X170231588Y-96721557D01*
X170433757Y-96787246D01*
X170643713Y-96820500D01*
X170643714Y-96820500D01*
X170856286Y-96820500D01*
X170856287Y-96820500D01*
X171066243Y-96787246D01*
X171268412Y-96721557D01*
X171457816Y-96625051D01*
X171479789Y-96609086D01*
X171629786Y-96500109D01*
X171629788Y-96500106D01*
X171629792Y-96500104D01*
X171780104Y-96349792D01*
X171780106Y-96349788D01*
X171780109Y-96349786D01*
X171905048Y-96177820D01*
X171905047Y-96177820D01*
X171905051Y-96177816D01*
X172001557Y-95988412D01*
X172067246Y-95786243D01*
X172100500Y-95576287D01*
X172100500Y-95363713D01*
X172067246Y-95153757D01*
X172001557Y-94951588D01*
X171905051Y-94762184D01*
X171905049Y-94762181D01*
X171905048Y-94762179D01*
X171780109Y-94590213D01*
X171629786Y-94439890D01*
X171457820Y-94314951D01*
X171457115Y-94314591D01*
X171449054Y-94310485D01*
X171398259Y-94262512D01*
X171381463Y-94194692D01*
X171403999Y-94128556D01*
X171449054Y-94089515D01*
X171457816Y-94085051D01*
X171479789Y-94069086D01*
X171629786Y-93960109D01*
X171629788Y-93960106D01*
X171629792Y-93960104D01*
X171780104Y-93809792D01*
X171780106Y-93809788D01*
X171780109Y-93809786D01*
X171905048Y-93637820D01*
X171905047Y-93637820D01*
X171905051Y-93637816D01*
X172001557Y-93448412D01*
X172067246Y-93246243D01*
X172100500Y-93036287D01*
X172100500Y-92823713D01*
X172067246Y-92613757D01*
X172001557Y-92411588D01*
X171905051Y-92222184D01*
X171905049Y-92222181D01*
X171905048Y-92222179D01*
X171780109Y-92050213D01*
X171629786Y-91899890D01*
X171457820Y-91774951D01*
X171457115Y-91774591D01*
X171449054Y-91770485D01*
X171398259Y-91722512D01*
X171381463Y-91654692D01*
X171403999Y-91588556D01*
X171449054Y-91549515D01*
X171457816Y-91545051D01*
X171487195Y-91523706D01*
X171629786Y-91420109D01*
X171629788Y-91420106D01*
X171629792Y-91420104D01*
X171780104Y-91269792D01*
X171780106Y-91269788D01*
X171780109Y-91269786D01*
X171905048Y-91097820D01*
X171905047Y-91097820D01*
X171905051Y-91097816D01*
X172001557Y-90908412D01*
X172067246Y-90706243D01*
X172100500Y-90496287D01*
X172100500Y-90283713D01*
X172067246Y-90073757D01*
X172001557Y-89871588D01*
X171905051Y-89682184D01*
X171905049Y-89682181D01*
X171905048Y-89682179D01*
X171780109Y-89510213D01*
X171629786Y-89359890D01*
X171457820Y-89234951D01*
X171457115Y-89234591D01*
X171449054Y-89230485D01*
X171398259Y-89182512D01*
X171381463Y-89114692D01*
X171403999Y-89048556D01*
X171449054Y-89009515D01*
X171457816Y-89005051D01*
X171515396Y-88963217D01*
X171629786Y-88880109D01*
X171629788Y-88880106D01*
X171629792Y-88880104D01*
X171780104Y-88729792D01*
X171780106Y-88729788D01*
X171780109Y-88729786D01*
X171905048Y-88557820D01*
X171905047Y-88557820D01*
X171905051Y-88557816D01*
X172001557Y-88368412D01*
X172067246Y-88166243D01*
X172100500Y-87956287D01*
X172100500Y-87743713D01*
X172067246Y-87533757D01*
X172001557Y-87331588D01*
X171905051Y-87142184D01*
X171905049Y-87142181D01*
X171905048Y-87142179D01*
X171780109Y-86970213D01*
X171629786Y-86819890D01*
X171457820Y-86694951D01*
X171268414Y-86598444D01*
X171268413Y-86598443D01*
X171268412Y-86598443D01*
X171066243Y-86532754D01*
X171066241Y-86532753D01*
X171066240Y-86532753D01*
X170904957Y-86507208D01*
X170856287Y-86499500D01*
X170643713Y-86499500D01*
X170595042Y-86507208D01*
X170433760Y-86532753D01*
X170231585Y-86598444D01*
X170042179Y-86694951D01*
X169870213Y-86819890D01*
X169719890Y-86970213D01*
X169594949Y-87142182D01*
X169590484Y-87150946D01*
X169542509Y-87201742D01*
X169474688Y-87218536D01*
X169408553Y-87195998D01*
X169369516Y-87150946D01*
X169365050Y-87142182D01*
X169240109Y-86970213D01*
X169089786Y-86819890D01*
X168917820Y-86694951D01*
X168917115Y-86694591D01*
X168909054Y-86690485D01*
X168858259Y-86642512D01*
X168841463Y-86574692D01*
X168863999Y-86508556D01*
X168909054Y-86469515D01*
X168917816Y-86465051D01*
X168947195Y-86443706D01*
X169089786Y-86340109D01*
X169089788Y-86340106D01*
X169089792Y-86340104D01*
X169240104Y-86189792D01*
X169240106Y-86189788D01*
X169240109Y-86189786D01*
X169365048Y-86017820D01*
X169365047Y-86017820D01*
X169365051Y-86017816D01*
X169461557Y-85828412D01*
X169527246Y-85626243D01*
X169560500Y-85416287D01*
X169560500Y-85203713D01*
X169527246Y-84993757D01*
X169461557Y-84791588D01*
X169365051Y-84602184D01*
X169365049Y-84602181D01*
X169365048Y-84602179D01*
X169240109Y-84430213D01*
X169089786Y-84279890D01*
X168917820Y-84154951D01*
X168917115Y-84154591D01*
X168909054Y-84150485D01*
X168858259Y-84102512D01*
X168841463Y-84034692D01*
X168863999Y-83968556D01*
X168909054Y-83929515D01*
X168917816Y-83925051D01*
X168975396Y-83883217D01*
X169089786Y-83800109D01*
X169089788Y-83800106D01*
X169089792Y-83800104D01*
X169240104Y-83649792D01*
X169240106Y-83649788D01*
X169240109Y-83649786D01*
X169365048Y-83477820D01*
X169365047Y-83477820D01*
X169365051Y-83477816D01*
X169369514Y-83469054D01*
X169417488Y-83418259D01*
X169485308Y-83401463D01*
X169551444Y-83423999D01*
X169590486Y-83469056D01*
X169594951Y-83477820D01*
X169719890Y-83649786D01*
X169870213Y-83800109D01*
X170042179Y-83925048D01*
X170042181Y-83925049D01*
X170042184Y-83925051D01*
X170231588Y-84021557D01*
X170433757Y-84087246D01*
X170643713Y-84120500D01*
X170643714Y-84120500D01*
X170856286Y-84120500D01*
X170856287Y-84120500D01*
X171066243Y-84087246D01*
X171268412Y-84021557D01*
X171457816Y-83925051D01*
X171515396Y-83883217D01*
X171629786Y-83800109D01*
X171629788Y-83800106D01*
X171629792Y-83800104D01*
X171780104Y-83649792D01*
X171780106Y-83649788D01*
X171780109Y-83649786D01*
X171905048Y-83477820D01*
X171905047Y-83477820D01*
X171905051Y-83477816D01*
X172001557Y-83288412D01*
X172067246Y-83086243D01*
X172100500Y-82876287D01*
X172100500Y-82663713D01*
X172067246Y-82453757D01*
X172001557Y-82251588D01*
X171905051Y-82062184D01*
X171905049Y-82062181D01*
X171905048Y-82062179D01*
X171780109Y-81890213D01*
X171629786Y-81739890D01*
X171457820Y-81614951D01*
X171457115Y-81614591D01*
X171449054Y-81610485D01*
X171398259Y-81562512D01*
X171381463Y-81494692D01*
X171403999Y-81428556D01*
X171449054Y-81389515D01*
X171457816Y-81385051D01*
X171479789Y-81369086D01*
X171629786Y-81260109D01*
X171629788Y-81260106D01*
X171629792Y-81260104D01*
X171780104Y-81109792D01*
X171780106Y-81109788D01*
X171780109Y-81109786D01*
X171902085Y-80941898D01*
X171905051Y-80937816D01*
X172001557Y-80748412D01*
X172067246Y-80546243D01*
X172100500Y-80336287D01*
X172100500Y-80123713D01*
X172067246Y-79913757D01*
X172001557Y-79711588D01*
X171905051Y-79522184D01*
X171905049Y-79522181D01*
X171905048Y-79522179D01*
X171780109Y-79350213D01*
X171629786Y-79199890D01*
X171457820Y-79074951D01*
X171268414Y-78978444D01*
X171268413Y-78978443D01*
X171268412Y-78978443D01*
X171066243Y-78912754D01*
X171066241Y-78912753D01*
X171066240Y-78912753D01*
X170904957Y-78887208D01*
X170856287Y-78879500D01*
X170643713Y-78879500D01*
X170595042Y-78887208D01*
X170433760Y-78912753D01*
X170231585Y-78978444D01*
X170042179Y-79074951D01*
X169870213Y-79199890D01*
X169719890Y-79350213D01*
X169594949Y-79522182D01*
X169590484Y-79530946D01*
X169542509Y-79581742D01*
X169474688Y-79598536D01*
X169408553Y-79575998D01*
X169369516Y-79530946D01*
X169365050Y-79522182D01*
X169240109Y-79350213D01*
X169089786Y-79199890D01*
X168917820Y-79074951D01*
X168917115Y-79074591D01*
X168909054Y-79070485D01*
X168858259Y-79022512D01*
X168841463Y-78954692D01*
X168863999Y-78888556D01*
X168909054Y-78849515D01*
X168917816Y-78845051D01*
X168960860Y-78813778D01*
X169089786Y-78720109D01*
X169089788Y-78720106D01*
X169089792Y-78720104D01*
X169240104Y-78569792D01*
X169240106Y-78569788D01*
X169240109Y-78569786D01*
X169365048Y-78397820D01*
X169365047Y-78397820D01*
X169365051Y-78397816D01*
X169461557Y-78208412D01*
X169527246Y-78006243D01*
X169560500Y-77796287D01*
X169560500Y-77583713D01*
X169527246Y-77373757D01*
X169461557Y-77171588D01*
X169365051Y-76982184D01*
X169365049Y-76982181D01*
X169365048Y-76982179D01*
X169240109Y-76810213D01*
X169089786Y-76659890D01*
X168917820Y-76534951D01*
X168917115Y-76534591D01*
X168909054Y-76530485D01*
X168858259Y-76482512D01*
X168841463Y-76414692D01*
X168863999Y-76348556D01*
X168909054Y-76309515D01*
X168917816Y-76305051D01*
X168955956Y-76277341D01*
X169089786Y-76180109D01*
X169089788Y-76180106D01*
X169089792Y-76180104D01*
X169240104Y-76029792D01*
X169240106Y-76029788D01*
X169240109Y-76029786D01*
X169365048Y-75857820D01*
X169365047Y-75857820D01*
X169365051Y-75857816D01*
X169369514Y-75849054D01*
X169417488Y-75798259D01*
X169485308Y-75781463D01*
X169551444Y-75803999D01*
X169590486Y-75849056D01*
X169594951Y-75857820D01*
X169719890Y-76029786D01*
X169870213Y-76180109D01*
X170042179Y-76305048D01*
X170042181Y-76305049D01*
X170042184Y-76305051D01*
X170231588Y-76401557D01*
X170433757Y-76467246D01*
X170643713Y-76500500D01*
X170643714Y-76500500D01*
X170856286Y-76500500D01*
X170856287Y-76500500D01*
X171066243Y-76467246D01*
X171268412Y-76401557D01*
X171457816Y-76305051D01*
X171495956Y-76277341D01*
X171629786Y-76180109D01*
X171629788Y-76180106D01*
X171629792Y-76180104D01*
X171780104Y-76029792D01*
X171780106Y-76029788D01*
X171780109Y-76029786D01*
X171905048Y-75857820D01*
X171905047Y-75857820D01*
X171905051Y-75857816D01*
X172001557Y-75668412D01*
X172067246Y-75466243D01*
X172100500Y-75256287D01*
X172100500Y-75043713D01*
X172067246Y-74833757D01*
X172001557Y-74631588D01*
X171905051Y-74442184D01*
X171905049Y-74442181D01*
X171905048Y-74442179D01*
X171780109Y-74270213D01*
X171629786Y-74119890D01*
X171457820Y-73994951D01*
X171457115Y-73994591D01*
X171449054Y-73990485D01*
X171398259Y-73942512D01*
X171381463Y-73874692D01*
X171403999Y-73808556D01*
X171449054Y-73769515D01*
X171457816Y-73765051D01*
X171479789Y-73749086D01*
X171629786Y-73640109D01*
X171629788Y-73640106D01*
X171629792Y-73640104D01*
X171780104Y-73489792D01*
X171780106Y-73489788D01*
X171780109Y-73489786D01*
X171905048Y-73317820D01*
X171905047Y-73317820D01*
X171905051Y-73317816D01*
X172001557Y-73128412D01*
X172067246Y-72926243D01*
X172100500Y-72716287D01*
X172100500Y-72503713D01*
X172067246Y-72293757D01*
X172001557Y-72091588D01*
X171905051Y-71902184D01*
X171905049Y-71902181D01*
X171905048Y-71902179D01*
X171780109Y-71730213D01*
X171629786Y-71579890D01*
X171457820Y-71454951D01*
X171457115Y-71454591D01*
X171449054Y-71450485D01*
X171398259Y-71402512D01*
X171381463Y-71334692D01*
X171403999Y-71268556D01*
X171449054Y-71229515D01*
X171457816Y-71225051D01*
X171479789Y-71209086D01*
X171629786Y-71100109D01*
X171629788Y-71100106D01*
X171629792Y-71100104D01*
X171780104Y-70949792D01*
X171780106Y-70949788D01*
X171780109Y-70949786D01*
X171905048Y-70777820D01*
X171905047Y-70777820D01*
X171905051Y-70777816D01*
X172001557Y-70588412D01*
X172067246Y-70386243D01*
X172100500Y-70176287D01*
X172100500Y-69963713D01*
X172067246Y-69753757D01*
X172001557Y-69551588D01*
X171905051Y-69362184D01*
X171905049Y-69362181D01*
X171905048Y-69362179D01*
X171780109Y-69190213D01*
X171629786Y-69039890D01*
X171457820Y-68914951D01*
X171268414Y-68818444D01*
X171268413Y-68818443D01*
X171268412Y-68818443D01*
X171066243Y-68752754D01*
X171066241Y-68752753D01*
X171066240Y-68752753D01*
X170904957Y-68727208D01*
X170856287Y-68719500D01*
X170643713Y-68719500D01*
X170595042Y-68727208D01*
X170433760Y-68752753D01*
X170231585Y-68818444D01*
X170042179Y-68914951D01*
X169870213Y-69039890D01*
X169719890Y-69190213D01*
X169594949Y-69362182D01*
X169590484Y-69370946D01*
X169542509Y-69421742D01*
X169474688Y-69438536D01*
X169408553Y-69415998D01*
X169369516Y-69370946D01*
X169365050Y-69362182D01*
X169240109Y-69190213D01*
X169089786Y-69039890D01*
X168917820Y-68914951D01*
X168917115Y-68914591D01*
X168909054Y-68910485D01*
X168858259Y-68862512D01*
X168841463Y-68794692D01*
X168863999Y-68728556D01*
X168909054Y-68689515D01*
X168917816Y-68685051D01*
X168939789Y-68669086D01*
X169089786Y-68560109D01*
X169089788Y-68560106D01*
X169089792Y-68560104D01*
X169240104Y-68409792D01*
X169240106Y-68409788D01*
X169240109Y-68409786D01*
X169365048Y-68237820D01*
X169365047Y-68237820D01*
X169365051Y-68237816D01*
X169461557Y-68048412D01*
X169527246Y-67846243D01*
X169560500Y-67636287D01*
X169560500Y-67423713D01*
X169527246Y-67213757D01*
X169461557Y-67011588D01*
X169365051Y-66822184D01*
X169365049Y-66822181D01*
X169365048Y-66822179D01*
X169240109Y-66650213D01*
X169089786Y-66499890D01*
X168917820Y-66374951D01*
X168917115Y-66374591D01*
X168909054Y-66370485D01*
X168858259Y-66322512D01*
X168841463Y-66254692D01*
X168863999Y-66188556D01*
X168909054Y-66149515D01*
X168917816Y-66145051D01*
X168939789Y-66129086D01*
X169089786Y-66020109D01*
X169089788Y-66020106D01*
X169089792Y-66020104D01*
X169240104Y-65869792D01*
X169240106Y-65869788D01*
X169240109Y-65869786D01*
X169365048Y-65697820D01*
X169365047Y-65697820D01*
X169365051Y-65697816D01*
X169369514Y-65689054D01*
X169417488Y-65638259D01*
X169485308Y-65621463D01*
X169551444Y-65643999D01*
X169590486Y-65689056D01*
X169594951Y-65697820D01*
X169719890Y-65869786D01*
X169870213Y-66020109D01*
X170042179Y-66145048D01*
X170042181Y-66145049D01*
X170042184Y-66145051D01*
X170231588Y-66241557D01*
X170433757Y-66307246D01*
X170643713Y-66340500D01*
X170643714Y-66340500D01*
X170856286Y-66340500D01*
X170856287Y-66340500D01*
X171066243Y-66307246D01*
X171268412Y-66241557D01*
X171457816Y-66145051D01*
X171479789Y-66129086D01*
X171629786Y-66020109D01*
X171629788Y-66020106D01*
X171629792Y-66020104D01*
X171780104Y-65869792D01*
X171780106Y-65869788D01*
X171780109Y-65869786D01*
X171905048Y-65697820D01*
X171905047Y-65697820D01*
X171905051Y-65697816D01*
X172001557Y-65508412D01*
X172067246Y-65306243D01*
X172100500Y-65096287D01*
X172100500Y-64883713D01*
X172067246Y-64673757D01*
X172001557Y-64471588D01*
X171905051Y-64282184D01*
X171905049Y-64282181D01*
X171905048Y-64282179D01*
X171780109Y-64110213D01*
X171629786Y-63959890D01*
X171457820Y-63834951D01*
X171457115Y-63834591D01*
X171449054Y-63830485D01*
X171398259Y-63782512D01*
X171381463Y-63714692D01*
X171403999Y-63648556D01*
X171449054Y-63609515D01*
X171457816Y-63605051D01*
X171544138Y-63542335D01*
X171629786Y-63480109D01*
X171629788Y-63480106D01*
X171629792Y-63480104D01*
X171780104Y-63329792D01*
X171780106Y-63329788D01*
X171780109Y-63329786D01*
X171905048Y-63157820D01*
X171905047Y-63157820D01*
X171905051Y-63157816D01*
X172001557Y-62968412D01*
X172067246Y-62766243D01*
X172100500Y-62556287D01*
X172100500Y-62343713D01*
X172067246Y-62133757D01*
X172001557Y-61931588D01*
X171905051Y-61742184D01*
X171905049Y-61742181D01*
X171905048Y-61742179D01*
X171780109Y-61570213D01*
X171629786Y-61419890D01*
X171457820Y-61294951D01*
X171268414Y-61198444D01*
X171268413Y-61198443D01*
X171268412Y-61198443D01*
X171066243Y-61132754D01*
X171066241Y-61132753D01*
X171066240Y-61132753D01*
X170904957Y-61107208D01*
X170856287Y-61099500D01*
X170643713Y-61099500D01*
X170595042Y-61107208D01*
X170433760Y-61132753D01*
X170231585Y-61198444D01*
X170042179Y-61294951D01*
X169870215Y-61419889D01*
X169756673Y-61533431D01*
X169695350Y-61566915D01*
X169625658Y-61561931D01*
X169569725Y-61520059D01*
X169552810Y-61489082D01*
X169503797Y-61357671D01*
X169503793Y-61357664D01*
X169417547Y-61242455D01*
X169417544Y-61242452D01*
X169302335Y-61156206D01*
X169302328Y-61156202D01*
X169167482Y-61105908D01*
X169167483Y-61105908D01*
X169107883Y-61099501D01*
X169107881Y-61099500D01*
X169107873Y-61099500D01*
X169107864Y-61099500D01*
X167312129Y-61099500D01*
X167312123Y-61099501D01*
X167252516Y-61105908D01*
X167117671Y-61156202D01*
X167117664Y-61156206D01*
X167002455Y-61242452D01*
X167002452Y-61242455D01*
X166916206Y-61357664D01*
X166916202Y-61357671D01*
X166865908Y-61492517D01*
X166859501Y-61552116D01*
X166859500Y-61552135D01*
X166859500Y-63347870D01*
X166859501Y-63347876D01*
X166865908Y-63407483D01*
X166916202Y-63542328D01*
X166916206Y-63542335D01*
X167002452Y-63657544D01*
X167002455Y-63657547D01*
X167117664Y-63743793D01*
X167117671Y-63743797D01*
X167249082Y-63792810D01*
X167305016Y-63834681D01*
X167329433Y-63900145D01*
X167314582Y-63968418D01*
X167293431Y-63996673D01*
X167179889Y-64110215D01*
X167054951Y-64282179D01*
X166958444Y-64471585D01*
X166892753Y-64673760D01*
X166859500Y-64883713D01*
X166859500Y-65096286D01*
X166892753Y-65306239D01*
X166958444Y-65508414D01*
X167054951Y-65697820D01*
X167179890Y-65869786D01*
X167330213Y-66020109D01*
X167502182Y-66145050D01*
X167510946Y-66149516D01*
X167561742Y-66197491D01*
X167578536Y-66265312D01*
X167555998Y-66331447D01*
X167510946Y-66370484D01*
X167502182Y-66374949D01*
X167330213Y-66499890D01*
X167179890Y-66650213D01*
X167054951Y-66822179D01*
X166958444Y-67011585D01*
X166892753Y-67213760D01*
X166859500Y-67423713D01*
X166859500Y-67636286D01*
X166876565Y-67744034D01*
X166892754Y-67846243D01*
X166954376Y-68035896D01*
X166958444Y-68048414D01*
X167054951Y-68237820D01*
X167179890Y-68409786D01*
X167330213Y-68560109D01*
X167502182Y-68685050D01*
X167510946Y-68689516D01*
X167561742Y-68737491D01*
X167578536Y-68805312D01*
X167555998Y-68871447D01*
X167510946Y-68910484D01*
X167502182Y-68914949D01*
X167330213Y-69039890D01*
X167179890Y-69190213D01*
X167054951Y-69362179D01*
X166958444Y-69551585D01*
X166892753Y-69753760D01*
X166859500Y-69963713D01*
X166859500Y-70176286D01*
X166892753Y-70386239D01*
X166958444Y-70588414D01*
X167054951Y-70777820D01*
X167179890Y-70949786D01*
X167330213Y-71100109D01*
X167502179Y-71225048D01*
X167502181Y-71225049D01*
X167502184Y-71225051D01*
X167691588Y-71321557D01*
X167893757Y-71387246D01*
X168103713Y-71420500D01*
X168103714Y-71420500D01*
X168316286Y-71420500D01*
X168316287Y-71420500D01*
X168526243Y-71387246D01*
X168728412Y-71321557D01*
X168917816Y-71225051D01*
X168939789Y-71209086D01*
X169089786Y-71100109D01*
X169089788Y-71100106D01*
X169089792Y-71100104D01*
X169240104Y-70949792D01*
X169240106Y-70949788D01*
X169240109Y-70949786D01*
X169365048Y-70777820D01*
X169365047Y-70777820D01*
X169365051Y-70777816D01*
X169369514Y-70769054D01*
X169417488Y-70718259D01*
X169485308Y-70701463D01*
X169551444Y-70723999D01*
X169590486Y-70769056D01*
X169594951Y-70777820D01*
X169719890Y-70949786D01*
X169870213Y-71100109D01*
X170042182Y-71225050D01*
X170050946Y-71229516D01*
X170101742Y-71277491D01*
X170118536Y-71345312D01*
X170095998Y-71411447D01*
X170050946Y-71450484D01*
X170042182Y-71454949D01*
X169870213Y-71579890D01*
X169719890Y-71730213D01*
X169594951Y-71902179D01*
X169498444Y-72091585D01*
X169432753Y-72293760D01*
X169399500Y-72503713D01*
X169399500Y-72716287D01*
X169403049Y-72738693D01*
X169432753Y-72926239D01*
X169498444Y-73128414D01*
X169594951Y-73317820D01*
X169719890Y-73489786D01*
X169870213Y-73640109D01*
X170042182Y-73765050D01*
X170050946Y-73769516D01*
X170101742Y-73817491D01*
X170118536Y-73885312D01*
X170095998Y-73951447D01*
X170050946Y-73990484D01*
X170042182Y-73994949D01*
X169870213Y-74119890D01*
X169719890Y-74270213D01*
X169594949Y-74442182D01*
X169590484Y-74450946D01*
X169542509Y-74501742D01*
X169474688Y-74518536D01*
X169408553Y-74495998D01*
X169369516Y-74450946D01*
X169365050Y-74442182D01*
X169240109Y-74270213D01*
X169089786Y-74119890D01*
X168917820Y-73994951D01*
X168728414Y-73898444D01*
X168728413Y-73898443D01*
X168728412Y-73898443D01*
X168526243Y-73832754D01*
X168526241Y-73832753D01*
X168526240Y-73832753D01*
X168364957Y-73807208D01*
X168316287Y-73799500D01*
X168103713Y-73799500D01*
X168055042Y-73807208D01*
X167893760Y-73832753D01*
X167691585Y-73898444D01*
X167502179Y-73994951D01*
X167330213Y-74119890D01*
X167179890Y-74270213D01*
X167054951Y-74442179D01*
X166958444Y-74631585D01*
X166892753Y-74833760D01*
X166859500Y-75043713D01*
X166859500Y-75256287D01*
X166859499Y-75256287D01*
X166886121Y-75424369D01*
X166877166Y-75493662D01*
X166851329Y-75531447D01*
X164630097Y-77752681D01*
X164568774Y-77786166D01*
X164542416Y-77789000D01*
X163309816Y-77789000D01*
X163242777Y-77769315D01*
X163197022Y-77716511D01*
X163187078Y-77647353D01*
X163188199Y-77640809D01*
X163210499Y-77528695D01*
X163210500Y-77528693D01*
X163210500Y-77355000D01*
X163213050Y-77346314D01*
X163211762Y-77337353D01*
X163222740Y-77313312D01*
X163230185Y-77287961D01*
X163237025Y-77282033D01*
X163240787Y-77273797D01*
X163263021Y-77259507D01*
X163282989Y-77242206D01*
X163293503Y-77239918D01*
X163299565Y-77236023D01*
X163334500Y-77231000D01*
X163395682Y-77231000D01*
X163462721Y-77250685D01*
X163464573Y-77251898D01*
X163593446Y-77338009D01*
X163593459Y-77338016D01*
X163716363Y-77388923D01*
X163757334Y-77405894D01*
X163757336Y-77405894D01*
X163757341Y-77405896D01*
X163931304Y-77440499D01*
X163931307Y-77440500D01*
X163931309Y-77440500D01*
X164108693Y-77440500D01*
X164108694Y-77440499D01*
X164166682Y-77428964D01*
X164282658Y-77405896D01*
X164282661Y-77405894D01*
X164282666Y-77405894D01*
X164446547Y-77338013D01*
X164594035Y-77239464D01*
X164719464Y-77114035D01*
X164818013Y-76966547D01*
X164885894Y-76802666D01*
X164920500Y-76628691D01*
X164920500Y-76451309D01*
X164920500Y-76451306D01*
X164920499Y-76451304D01*
X164885896Y-76277341D01*
X164885893Y-76277332D01*
X164818016Y-76113459D01*
X164818009Y-76113446D01*
X164719464Y-75965965D01*
X164719461Y-75965961D01*
X164594038Y-75840538D01*
X164594034Y-75840535D01*
X164446549Y-75741988D01*
X164446540Y-75741983D01*
X164282667Y-75674106D01*
X164282658Y-75674103D01*
X164108694Y-75639500D01*
X164108691Y-75639500D01*
X163931309Y-75639500D01*
X163931306Y-75639500D01*
X163757341Y-75674103D01*
X163757332Y-75674106D01*
X163593459Y-75741983D01*
X163593451Y-75741988D01*
X163464573Y-75828102D01*
X163397896Y-75848980D01*
X163395682Y-75849000D01*
X159564726Y-75849000D01*
X159497687Y-75829315D01*
X159451932Y-75776511D01*
X159441988Y-75707353D01*
X159461626Y-75656107D01*
X159468007Y-75646556D01*
X159468007Y-75646555D01*
X159468013Y-75646547D01*
X159535894Y-75482666D01*
X159570500Y-75308691D01*
X159570500Y-75131309D01*
X159570500Y-75131306D01*
X159570499Y-75131304D01*
X159535896Y-74957341D01*
X159535893Y-74957332D01*
X159468016Y-74793459D01*
X159468009Y-74793446D01*
X159381898Y-74664573D01*
X159361020Y-74597896D01*
X159361000Y-74595682D01*
X159361000Y-67625837D01*
X159380685Y-67558798D01*
X159433489Y-67513043D01*
X159460804Y-67504220D01*
X159502666Y-67495894D01*
X159666547Y-67428013D01*
X159814035Y-67329464D01*
X159939464Y-67204035D01*
X160038013Y-67056547D01*
X160105894Y-66892666D01*
X160109870Y-66872680D01*
X160135573Y-66743459D01*
X160140500Y-66718691D01*
X160140500Y-66541309D01*
X160140500Y-66541306D01*
X160140499Y-66541304D01*
X160105896Y-66367341D01*
X160105893Y-66367332D01*
X160038016Y-66203459D01*
X160038009Y-66203446D01*
X159939464Y-66055965D01*
X159939461Y-66055961D01*
X159814038Y-65930538D01*
X159814034Y-65930535D01*
X159666553Y-65831990D01*
X159666540Y-65831983D01*
X159502667Y-65764106D01*
X159502658Y-65764103D01*
X159328694Y-65729500D01*
X159328691Y-65729500D01*
X159151309Y-65729500D01*
X159151306Y-65729500D01*
X158977341Y-65764103D01*
X158977332Y-65764106D01*
X158813459Y-65831983D01*
X158813446Y-65831990D01*
X158665965Y-65930535D01*
X158665961Y-65930538D01*
X158540538Y-66055961D01*
X158540535Y-66055965D01*
X158441990Y-66203446D01*
X158441983Y-66203459D01*
X158374106Y-66367332D01*
X158374104Y-66367340D01*
X158343865Y-66519359D01*
X158311480Y-66581270D01*
X158309929Y-66582848D01*
X158133269Y-66759507D01*
X158133263Y-66759514D01*
X158083276Y-66834327D01*
X158083275Y-66834329D01*
X158057648Y-66872680D01*
X158057640Y-66872695D01*
X158005556Y-66998438D01*
X158005553Y-66998448D01*
X157979000Y-67131939D01*
X157979000Y-74595682D01*
X157959315Y-74662721D01*
X157958102Y-74664573D01*
X157871990Y-74793446D01*
X157871983Y-74793459D01*
X157804106Y-74957332D01*
X157804103Y-74957341D01*
X157769500Y-75131304D01*
X157769500Y-75308695D01*
X157804103Y-75482658D01*
X157804106Y-75482667D01*
X157871983Y-75646540D01*
X157871992Y-75646556D01*
X157878374Y-75656107D01*
X157899254Y-75722783D01*
X157880771Y-75790164D01*
X157828793Y-75836856D01*
X157775274Y-75849000D01*
X153767584Y-75849000D01*
X153700545Y-75829315D01*
X153679903Y-75812681D01*
X152517319Y-74650097D01*
X152483834Y-74588774D01*
X152481000Y-74562416D01*
X152481000Y-72884317D01*
X152500685Y-72817278D01*
X152501898Y-72815426D01*
X152588013Y-72686547D01*
X152655894Y-72522666D01*
X152690500Y-72348691D01*
X152690500Y-72171309D01*
X152690500Y-72171306D01*
X152690499Y-72171304D01*
X152655896Y-71997341D01*
X152655893Y-71997332D01*
X152588016Y-71833459D01*
X152588009Y-71833446D01*
X152489464Y-71685965D01*
X152489461Y-71685961D01*
X152364038Y-71560538D01*
X152364034Y-71560535D01*
X152216553Y-71461990D01*
X152216540Y-71461983D01*
X152052667Y-71394106D01*
X152052658Y-71394103D01*
X151878694Y-71359500D01*
X151878691Y-71359500D01*
X151701309Y-71359500D01*
X151701306Y-71359500D01*
X151527341Y-71394103D01*
X151527332Y-71394106D01*
X151363459Y-71461983D01*
X151363446Y-71461990D01*
X151215965Y-71560535D01*
X151215961Y-71560538D01*
X151090538Y-71685961D01*
X151090535Y-71685965D01*
X150991990Y-71833446D01*
X150991983Y-71833459D01*
X150924106Y-71997332D01*
X150924103Y-71997341D01*
X150889500Y-72171304D01*
X150889500Y-72348695D01*
X150924103Y-72522658D01*
X150924106Y-72522667D01*
X150991983Y-72686540D01*
X150991990Y-72686552D01*
X151078102Y-72815426D01*
X151098980Y-72882103D01*
X151099000Y-72884317D01*
X151099000Y-74968058D01*
X151099000Y-74968060D01*
X151098999Y-74968060D01*
X151125553Y-75101551D01*
X151125556Y-75101561D01*
X151177642Y-75227309D01*
X151177644Y-75227312D01*
X151253263Y-75340485D01*
X151253269Y-75340492D01*
X152450097Y-76537319D01*
X152483582Y-76598642D01*
X152478598Y-76668334D01*
X152436726Y-76724267D01*
X152371262Y-76748684D01*
X152362416Y-76749000D01*
X150647584Y-76749000D01*
X150580545Y-76729315D01*
X150559903Y-76712681D01*
X149177319Y-75330097D01*
X149143834Y-75268774D01*
X149141000Y-75242416D01*
X149141000Y-72884317D01*
X149160685Y-72817278D01*
X149161898Y-72815426D01*
X149248013Y-72686547D01*
X149315894Y-72522666D01*
X149350500Y-72348691D01*
X149350500Y-72171309D01*
X149350500Y-72171306D01*
X149350499Y-72171304D01*
X149315896Y-71997341D01*
X149315893Y-71997332D01*
X149248016Y-71833459D01*
X149248009Y-71833446D01*
X149149464Y-71685965D01*
X149149461Y-71685961D01*
X149024038Y-71560538D01*
X149024034Y-71560535D01*
X148876553Y-71461990D01*
X148876540Y-71461983D01*
X148712667Y-71394106D01*
X148712658Y-71394103D01*
X148538694Y-71359500D01*
X148538691Y-71359500D01*
X148361309Y-71359500D01*
X148361306Y-71359500D01*
X148187341Y-71394103D01*
X148187332Y-71394106D01*
X148023459Y-71461983D01*
X148023446Y-71461990D01*
X147875965Y-71560535D01*
X147875961Y-71560538D01*
X147750538Y-71685961D01*
X147750535Y-71685965D01*
X147651990Y-71833446D01*
X147651983Y-71833459D01*
X147584106Y-71997332D01*
X147584103Y-71997341D01*
X147549500Y-72171304D01*
X147549500Y-72348695D01*
X147584103Y-72522658D01*
X147584106Y-72522667D01*
X147651983Y-72686540D01*
X147651990Y-72686552D01*
X147738102Y-72815426D01*
X147758980Y-72882103D01*
X147759000Y-72884317D01*
X147759000Y-75648058D01*
X147759000Y-75648060D01*
X147758999Y-75648060D01*
X147773864Y-75722783D01*
X147777684Y-75741987D01*
X147785555Y-75781557D01*
X147785556Y-75781559D01*
X147785556Y-75781561D01*
X147837642Y-75907309D01*
X147837644Y-75907312D01*
X147913263Y-76020485D01*
X147913269Y-76020492D01*
X149470097Y-77577319D01*
X149503582Y-77638642D01*
X149498598Y-77708334D01*
X149456726Y-77764267D01*
X149391262Y-77788684D01*
X149382416Y-77789000D01*
X147493848Y-77789000D01*
X147426809Y-77769315D01*
X147381054Y-77716511D01*
X147371110Y-77647353D01*
X147372231Y-77640808D01*
X147400500Y-77498693D01*
X147400500Y-77321306D01*
X147400499Y-77321304D01*
X147365896Y-77147341D01*
X147365893Y-77147332D01*
X147298016Y-76983459D01*
X147298009Y-76983446D01*
X147199464Y-76835965D01*
X147199461Y-76835961D01*
X147074038Y-76710538D01*
X147074034Y-76710535D01*
X146926553Y-76611990D01*
X146926540Y-76611983D01*
X146762667Y-76544106D01*
X146762659Y-76544104D01*
X146610639Y-76513865D01*
X146548728Y-76481480D01*
X146547150Y-76479929D01*
X145977319Y-75910097D01*
X145943834Y-75848774D01*
X145941000Y-75822416D01*
X145941000Y-72884317D01*
X145960685Y-72817278D01*
X145961898Y-72815426D01*
X146048013Y-72686547D01*
X146115894Y-72522666D01*
X146150500Y-72348691D01*
X146150500Y-72171309D01*
X146150500Y-72171306D01*
X146150499Y-72171304D01*
X146115896Y-71997341D01*
X146115893Y-71997332D01*
X146048016Y-71833459D01*
X146048009Y-71833446D01*
X145949464Y-71685965D01*
X145949461Y-71685961D01*
X145824038Y-71560538D01*
X145824034Y-71560535D01*
X145676553Y-71461990D01*
X145676540Y-71461983D01*
X145512667Y-71394106D01*
X145512658Y-71394103D01*
X145338694Y-71359500D01*
X145338691Y-71359500D01*
X145161309Y-71359500D01*
X145161306Y-71359500D01*
X144987341Y-71394103D01*
X144987332Y-71394106D01*
X144823459Y-71461983D01*
X144823446Y-71461990D01*
X144675965Y-71560535D01*
X144675961Y-71560538D01*
X144550538Y-71685961D01*
X144550535Y-71685965D01*
X144451990Y-71833446D01*
X144451983Y-71833459D01*
X144384106Y-71997332D01*
X144384103Y-71997341D01*
X144349500Y-72171304D01*
X144349500Y-72348695D01*
X144384103Y-72522658D01*
X144384106Y-72522667D01*
X144451983Y-72686540D01*
X144451990Y-72686552D01*
X144538102Y-72815426D01*
X144558980Y-72882103D01*
X144559000Y-72884317D01*
X144559000Y-75672416D01*
X144539315Y-75739455D01*
X144486511Y-75785210D01*
X144417353Y-75795154D01*
X144353797Y-75766129D01*
X144347319Y-75760097D01*
X143017319Y-74430097D01*
X142983834Y-74368774D01*
X142981000Y-74342416D01*
X142981000Y-72884317D01*
X143000685Y-72817278D01*
X143001898Y-72815426D01*
X143088013Y-72686547D01*
X143155894Y-72522666D01*
X143190500Y-72348691D01*
X143190500Y-72171309D01*
X143190500Y-72171306D01*
X143190499Y-72171304D01*
X143155896Y-71997341D01*
X143155893Y-71997332D01*
X143088016Y-71833459D01*
X143088009Y-71833446D01*
X142989464Y-71685965D01*
X142989461Y-71685961D01*
X142864038Y-71560538D01*
X142864034Y-71560535D01*
X142716553Y-71461990D01*
X142716540Y-71461983D01*
X142552667Y-71394106D01*
X142552658Y-71394103D01*
X142378694Y-71359500D01*
X142378691Y-71359500D01*
X142201309Y-71359500D01*
X142201306Y-71359500D01*
X142027341Y-71394103D01*
X142027332Y-71394106D01*
X141863459Y-71461983D01*
X141863446Y-71461990D01*
X141715965Y-71560535D01*
X141715961Y-71560538D01*
X141590538Y-71685961D01*
X141590535Y-71685965D01*
X141491990Y-71833446D01*
X141491983Y-71833459D01*
X141424106Y-71997332D01*
X141424103Y-71997341D01*
X141389500Y-72171304D01*
X141389500Y-72348695D01*
X141424103Y-72522658D01*
X141424106Y-72522667D01*
X141491983Y-72686540D01*
X141491990Y-72686552D01*
X141578102Y-72815426D01*
X141598980Y-72882103D01*
X141599000Y-72884317D01*
X141599000Y-74748058D01*
X141608030Y-74793452D01*
X141608030Y-74793454D01*
X141625553Y-74881549D01*
X141625556Y-74881561D01*
X141677642Y-75007309D01*
X141677644Y-75007312D01*
X141753263Y-75120485D01*
X141753269Y-75120492D01*
X145649510Y-79016732D01*
X145649512Y-79016734D01*
X145649515Y-79016736D01*
X145685081Y-79040500D01*
X145762689Y-79092356D01*
X145762691Y-79092357D01*
X145762695Y-79092359D01*
X145888438Y-79144443D01*
X145888443Y-79144445D01*
X145888447Y-79144445D01*
X145888448Y-79144446D01*
X146021939Y-79171000D01*
X153980142Y-79171000D01*
X154047181Y-79190685D01*
X154092936Y-79243489D01*
X154102880Y-79312647D01*
X154073855Y-79376203D01*
X154027594Y-79409561D01*
X153973458Y-79431983D01*
X153973446Y-79431990D01*
X153825965Y-79530535D01*
X153825961Y-79530538D01*
X153700538Y-79655961D01*
X153700535Y-79655965D01*
X153601990Y-79803446D01*
X153601983Y-79803459D01*
X153534106Y-79967332D01*
X153534103Y-79967341D01*
X153499500Y-80141304D01*
X153499500Y-80318695D01*
X153534103Y-80492658D01*
X153534106Y-80492667D01*
X153601983Y-80656540D01*
X153601990Y-80656553D01*
X153700535Y-80804034D01*
X153700538Y-80804038D01*
X153825961Y-80929461D01*
X153825965Y-80929464D01*
X153973446Y-81028009D01*
X153973459Y-81028016D01*
X154096363Y-81078923D01*
X154137334Y-81095894D01*
X154137336Y-81095894D01*
X154137341Y-81095896D01*
X154311304Y-81130499D01*
X154311307Y-81130500D01*
X154311309Y-81130500D01*
X154488693Y-81130500D01*
X154488694Y-81130499D01*
X154546682Y-81118964D01*
X154662658Y-81095896D01*
X154662661Y-81095894D01*
X154662666Y-81095894D01*
X154826547Y-81028013D01*
X154910204Y-80972115D01*
X154955427Y-80941898D01*
X155022104Y-80921020D01*
X155024318Y-80921000D01*
X166979550Y-80921000D01*
X167046589Y-80940685D01*
X167079867Y-80972113D01*
X167120483Y-81028016D01*
X167179896Y-81109792D01*
X167330213Y-81260109D01*
X167502182Y-81385050D01*
X167510946Y-81389516D01*
X167561742Y-81437491D01*
X167578536Y-81505312D01*
X167555998Y-81571447D01*
X167510946Y-81610484D01*
X167502182Y-81614949D01*
X167330213Y-81739890D01*
X167179890Y-81890213D01*
X167054951Y-82062179D01*
X166958444Y-82251585D01*
X166892753Y-82453760D01*
X166859500Y-82663713D01*
X166859500Y-82876287D01*
X166892754Y-83086243D01*
X166916263Y-83158597D01*
X166958444Y-83288414D01*
X167054951Y-83477820D01*
X167179890Y-83649786D01*
X167330213Y-83800109D01*
X167502182Y-83925050D01*
X167510946Y-83929516D01*
X167561742Y-83977491D01*
X167578536Y-84045312D01*
X167555998Y-84111447D01*
X167510946Y-84150484D01*
X167502182Y-84154949D01*
X167330213Y-84279890D01*
X167179890Y-84430213D01*
X167054951Y-84602179D01*
X166958444Y-84791585D01*
X166892753Y-84993760D01*
X166866035Y-85162452D01*
X166859500Y-85203713D01*
X166859500Y-85416287D01*
X166892754Y-85626243D01*
X166941667Y-85776782D01*
X166958444Y-85828414D01*
X167054951Y-86017820D01*
X167179890Y-86189786D01*
X167330213Y-86340109D01*
X167502182Y-86465050D01*
X167510946Y-86469516D01*
X167561742Y-86517491D01*
X167578536Y-86585312D01*
X167555998Y-86651447D01*
X167510946Y-86690484D01*
X167502182Y-86694949D01*
X167330213Y-86819890D01*
X167179890Y-86970213D01*
X167054951Y-87142179D01*
X166958444Y-87331585D01*
X166892753Y-87533760D01*
X166859500Y-87743713D01*
X166859500Y-87956287D01*
X166892754Y-88166243D01*
X166916263Y-88238597D01*
X166958444Y-88368414D01*
X167054951Y-88557820D01*
X167179890Y-88729786D01*
X167330213Y-88880109D01*
X167502182Y-89005050D01*
X167510946Y-89009516D01*
X167561742Y-89057491D01*
X167578536Y-89125312D01*
X167555998Y-89191447D01*
X167510946Y-89230484D01*
X167502182Y-89234949D01*
X167330213Y-89359890D01*
X167179890Y-89510213D01*
X167054951Y-89682179D01*
X166958444Y-89871585D01*
X166892753Y-90073760D01*
X166866035Y-90242452D01*
X166859500Y-90283713D01*
X166859500Y-90496287D01*
X166892754Y-90706243D01*
X166941667Y-90856782D01*
X166958444Y-90908414D01*
X167054951Y-91097820D01*
X167179890Y-91269786D01*
X167330213Y-91420109D01*
X167502179Y-91545048D01*
X167502181Y-91545049D01*
X167502184Y-91545051D01*
X167691588Y-91641557D01*
X167893757Y-91707246D01*
X168103713Y-91740500D01*
X168103714Y-91740500D01*
X168316286Y-91740500D01*
X168316287Y-91740500D01*
X168526243Y-91707246D01*
X168728412Y-91641557D01*
X168917816Y-91545051D01*
X168947195Y-91523706D01*
X169089786Y-91420109D01*
X169089788Y-91420106D01*
X169089792Y-91420104D01*
X169240104Y-91269792D01*
X169240106Y-91269788D01*
X169240109Y-91269786D01*
X169365048Y-91097820D01*
X169365047Y-91097820D01*
X169365051Y-91097816D01*
X169369514Y-91089054D01*
X169417488Y-91038259D01*
X169485308Y-91021463D01*
X169551444Y-91043999D01*
X169590486Y-91089056D01*
X169594951Y-91097820D01*
X169719890Y-91269786D01*
X169870213Y-91420109D01*
X170042182Y-91545050D01*
X170050946Y-91549516D01*
X170101742Y-91597491D01*
X170118536Y-91665312D01*
X170095998Y-91731447D01*
X170050946Y-91770484D01*
X170042182Y-91774949D01*
X169870213Y-91899890D01*
X169719890Y-92050213D01*
X169594951Y-92222179D01*
X169498444Y-92411585D01*
X169432753Y-92613760D01*
X169399500Y-92823713D01*
X169399500Y-93036286D01*
X169432753Y-93246239D01*
X169498444Y-93448414D01*
X169594951Y-93637820D01*
X169719890Y-93809786D01*
X169870213Y-93960109D01*
X170042182Y-94085050D01*
X170050946Y-94089516D01*
X170101742Y-94137491D01*
X170118536Y-94205312D01*
X170095998Y-94271447D01*
X170050946Y-94310484D01*
X170042182Y-94314949D01*
X169870213Y-94439890D01*
X169719890Y-94590213D01*
X169594949Y-94762182D01*
X169590484Y-94770946D01*
X169542509Y-94821742D01*
X169474688Y-94838536D01*
X169408553Y-94815998D01*
X169369516Y-94770946D01*
X169365050Y-94762182D01*
X169240109Y-94590213D01*
X169089786Y-94439890D01*
X168917820Y-94314951D01*
X168728414Y-94218444D01*
X168728413Y-94218443D01*
X168728412Y-94218443D01*
X168526243Y-94152754D01*
X168526241Y-94152753D01*
X168526240Y-94152753D01*
X168364957Y-94127208D01*
X168316287Y-94119500D01*
X168103713Y-94119500D01*
X168055042Y-94127208D01*
X167893760Y-94152753D01*
X167691585Y-94218444D01*
X167502179Y-94314951D01*
X167330213Y-94439890D01*
X167179890Y-94590213D01*
X167054951Y-94762179D01*
X166958444Y-94951585D01*
X166892753Y-95153760D01*
X166859500Y-95363713D01*
X166859500Y-95576286D01*
X166892753Y-95786239D01*
X166958444Y-95988414D01*
X167054951Y-96177820D01*
X167179890Y-96349786D01*
X167330213Y-96500109D01*
X167502182Y-96625050D01*
X167510946Y-96629516D01*
X167561742Y-96677491D01*
X167578536Y-96745312D01*
X167555998Y-96811447D01*
X167510946Y-96850484D01*
X167502182Y-96854949D01*
X167330213Y-96979890D01*
X167179890Y-97130213D01*
X167054951Y-97302179D01*
X166958444Y-97491585D01*
X166892753Y-97693760D01*
X166859500Y-97903713D01*
X166859500Y-98116286D01*
X166890196Y-98310097D01*
X166892754Y-98326243D01*
X166921280Y-98414038D01*
X166958444Y-98528414D01*
X167054951Y-98717820D01*
X167179890Y-98889786D01*
X167330213Y-99040109D01*
X167502182Y-99165050D01*
X167510946Y-99169516D01*
X167561742Y-99217491D01*
X167578536Y-99285312D01*
X167555998Y-99351447D01*
X167510946Y-99390484D01*
X167502182Y-99394949D01*
X167330213Y-99519890D01*
X167179890Y-99670213D01*
X167054951Y-99842179D01*
X166958444Y-100031585D01*
X166892753Y-100233760D01*
X166859500Y-100443713D01*
X166859500Y-100656287D01*
X166892754Y-100866243D01*
X166927333Y-100972667D01*
X166958444Y-101068414D01*
X167054951Y-101257820D01*
X167179890Y-101429786D01*
X167330213Y-101580109D01*
X167502182Y-101705050D01*
X167510946Y-101709516D01*
X167561742Y-101757491D01*
X167578536Y-101825312D01*
X167555998Y-101891447D01*
X167510946Y-101930484D01*
X167502182Y-101934949D01*
X167330213Y-102059890D01*
X167179890Y-102210213D01*
X167054951Y-102382179D01*
X166958444Y-102571585D01*
X166892753Y-102773760D01*
X166871626Y-102907150D01*
X166859500Y-102983713D01*
X166859500Y-103196287D01*
X166892754Y-103406243D01*
X166925830Y-103508041D01*
X166958444Y-103608414D01*
X167054951Y-103797820D01*
X167179890Y-103969786D01*
X167330213Y-104120109D01*
X167502182Y-104245050D01*
X167510946Y-104249516D01*
X167561742Y-104297491D01*
X167578536Y-104365312D01*
X167555998Y-104431447D01*
X167510946Y-104470484D01*
X167502182Y-104474949D01*
X167330213Y-104599890D01*
X167179890Y-104750213D01*
X167054951Y-104922179D01*
X166958444Y-105111585D01*
X166892753Y-105313760D01*
X166859500Y-105523713D01*
X166859500Y-105736286D01*
X166891313Y-105937150D01*
X166892754Y-105946243D01*
X166910428Y-106000639D01*
X166958444Y-106148414D01*
X167054951Y-106337820D01*
X167179890Y-106509786D01*
X167330213Y-106660109D01*
X167502182Y-106785050D01*
X167510946Y-106789516D01*
X167561742Y-106837491D01*
X167578536Y-106905312D01*
X167555998Y-106971447D01*
X167510946Y-107010484D01*
X167502182Y-107014949D01*
X167330213Y-107139890D01*
X167179896Y-107290207D01*
X167079869Y-107427885D01*
X167024539Y-107470551D01*
X166979550Y-107479000D01*
X145107584Y-107479000D01*
X145040545Y-107459315D01*
X145019903Y-107442681D01*
X135887319Y-98310097D01*
X135853834Y-98248774D01*
X135851000Y-98222416D01*
X135851000Y-73274317D01*
X135870685Y-73207278D01*
X135871898Y-73205426D01*
X135923356Y-73128414D01*
X135958013Y-73076547D01*
X136025894Y-72912666D01*
X136031974Y-72882103D01*
X136060499Y-72738695D01*
X136060500Y-72738693D01*
X136060500Y-72561306D01*
X136060499Y-72561304D01*
X136025896Y-72387341D01*
X136025893Y-72387332D01*
X135958016Y-72223459D01*
X135958009Y-72223446D01*
X135859464Y-72075965D01*
X135859461Y-72075961D01*
X135734038Y-71950538D01*
X135734034Y-71950535D01*
X135586553Y-71851990D01*
X135586540Y-71851983D01*
X135422667Y-71784106D01*
X135422658Y-71784103D01*
X135248694Y-71749500D01*
X135248691Y-71749500D01*
X135071309Y-71749500D01*
X135071306Y-71749500D01*
X134897341Y-71784103D01*
X134897332Y-71784106D01*
X134733459Y-71851983D01*
X134733446Y-71851990D01*
X134585965Y-71950535D01*
X134585961Y-71950538D01*
X134460538Y-72075961D01*
X134460535Y-72075965D01*
X134361990Y-72223446D01*
X134361983Y-72223459D01*
X134294106Y-72387332D01*
X134294103Y-72387341D01*
X134259500Y-72561304D01*
X134259500Y-72738695D01*
X134294103Y-72912658D01*
X134294106Y-72912667D01*
X134361983Y-73076540D01*
X134361990Y-73076552D01*
X134448102Y-73205426D01*
X134468980Y-73272103D01*
X134469000Y-73274317D01*
X134469000Y-98112416D01*
X134449315Y-98179455D01*
X134396511Y-98225210D01*
X134327353Y-98235154D01*
X134263797Y-98206129D01*
X134257319Y-98200097D01*
X132587319Y-96530097D01*
X132553834Y-96468774D01*
X132551000Y-96442416D01*
X132551000Y-73274317D01*
X132570685Y-73207278D01*
X132571898Y-73205426D01*
X132623356Y-73128414D01*
X132658013Y-73076547D01*
X132725894Y-72912666D01*
X132731974Y-72882103D01*
X132760499Y-72738695D01*
X132760500Y-72738693D01*
X132760500Y-72561306D01*
X132760499Y-72561304D01*
X132725896Y-72387341D01*
X132725893Y-72387332D01*
X132658016Y-72223459D01*
X132658009Y-72223446D01*
X132559464Y-72075965D01*
X132559461Y-72075961D01*
X132434038Y-71950538D01*
X132434034Y-71950535D01*
X132286553Y-71851990D01*
X132286540Y-71851983D01*
X132122667Y-71784106D01*
X132122658Y-71784103D01*
X131948694Y-71749500D01*
X131948691Y-71749500D01*
X131771309Y-71749500D01*
X131771306Y-71749500D01*
X131597341Y-71784103D01*
X131597332Y-71784106D01*
X131433459Y-71851983D01*
X131433446Y-71851990D01*
X131285965Y-71950535D01*
X131285961Y-71950538D01*
X131160538Y-72075961D01*
X131160535Y-72075965D01*
X131061990Y-72223446D01*
X131061983Y-72223459D01*
X130994106Y-72387332D01*
X130994103Y-72387341D01*
X130959500Y-72561304D01*
X130959500Y-72738695D01*
X130994103Y-72912658D01*
X130994106Y-72912667D01*
X131061983Y-73076540D01*
X131061990Y-73076552D01*
X131148102Y-73205426D01*
X131168980Y-73272103D01*
X131169000Y-73274317D01*
X131169000Y-95942416D01*
X131149315Y-96009455D01*
X131096511Y-96055210D01*
X131027353Y-96065154D01*
X130963797Y-96036129D01*
X130957319Y-96030097D01*
X129367319Y-94440097D01*
X129333834Y-94378774D01*
X129331000Y-94352416D01*
X129331000Y-73274317D01*
X129350685Y-73207278D01*
X129351898Y-73205426D01*
X129403356Y-73128414D01*
X129438013Y-73076547D01*
X129505894Y-72912666D01*
X129511974Y-72882103D01*
X129540499Y-72738695D01*
X129540500Y-72738693D01*
X129540500Y-72561306D01*
X129540499Y-72561304D01*
X129505896Y-72387341D01*
X129505893Y-72387332D01*
X129438016Y-72223459D01*
X129438009Y-72223446D01*
X129339464Y-72075965D01*
X129339461Y-72075961D01*
X129214038Y-71950538D01*
X129214034Y-71950535D01*
X129066553Y-71851990D01*
X129066540Y-71851983D01*
X128902667Y-71784106D01*
X128902658Y-71784103D01*
X128728694Y-71749500D01*
X128728691Y-71749500D01*
X128551309Y-71749500D01*
X128551306Y-71749500D01*
X128377341Y-71784103D01*
X128377332Y-71784106D01*
X128213459Y-71851983D01*
X128213446Y-71851990D01*
X128065965Y-71950535D01*
X128065961Y-71950538D01*
X127940538Y-72075961D01*
X127940535Y-72075965D01*
X127841990Y-72223446D01*
X127841983Y-72223459D01*
X127774106Y-72387332D01*
X127774103Y-72387341D01*
X127739500Y-72561304D01*
X127739500Y-72738695D01*
X127774103Y-72912658D01*
X127774106Y-72912667D01*
X127841983Y-73076540D01*
X127841990Y-73076552D01*
X127928102Y-73205426D01*
X127948980Y-73272103D01*
X127949000Y-73274317D01*
X127949000Y-94202416D01*
X127929315Y-94269455D01*
X127876511Y-94315210D01*
X127807353Y-94325154D01*
X127743797Y-94296129D01*
X127737319Y-94290097D01*
X126307319Y-92860097D01*
X126273834Y-92798774D01*
X126271000Y-92772416D01*
X126271000Y-73274317D01*
X126290685Y-73207278D01*
X126291898Y-73205426D01*
X126343356Y-73128414D01*
X126378013Y-73076547D01*
X126445894Y-72912666D01*
X126451974Y-72882103D01*
X126480499Y-72738695D01*
X126480500Y-72738693D01*
X126480500Y-72561306D01*
X126480499Y-72561304D01*
X126445896Y-72387341D01*
X126445893Y-72387332D01*
X126378016Y-72223459D01*
X126378009Y-72223446D01*
X126279464Y-72075965D01*
X126279461Y-72075961D01*
X126154038Y-71950538D01*
X126154034Y-71950535D01*
X126006553Y-71851990D01*
X126006540Y-71851983D01*
X125842667Y-71784106D01*
X125842658Y-71784103D01*
X125668694Y-71749500D01*
X125668691Y-71749500D01*
X125491309Y-71749500D01*
X125491306Y-71749500D01*
X125317341Y-71784103D01*
X125317332Y-71784106D01*
X125153459Y-71851983D01*
X125153446Y-71851990D01*
X125005965Y-71950535D01*
X125005961Y-71950538D01*
X124880538Y-72075961D01*
X124880535Y-72075965D01*
X124781990Y-72223446D01*
X124781983Y-72223459D01*
X124714106Y-72387332D01*
X124714103Y-72387341D01*
X124679500Y-72561304D01*
X124679500Y-72738695D01*
X124714103Y-72912658D01*
X124714106Y-72912667D01*
X124781983Y-73076540D01*
X124781990Y-73076552D01*
X124868102Y-73205426D01*
X124888980Y-73272103D01*
X124889000Y-73274317D01*
X124889000Y-80482416D01*
X124869315Y-80549455D01*
X124816511Y-80595210D01*
X124747353Y-80605154D01*
X124683797Y-80576129D01*
X124677319Y-80570097D01*
X122957319Y-78850097D01*
X122923834Y-78788774D01*
X122921000Y-78762416D01*
X122921000Y-73274317D01*
X122940685Y-73207278D01*
X122941898Y-73205426D01*
X122993356Y-73128414D01*
X123028013Y-73076547D01*
X123095894Y-72912666D01*
X123101974Y-72882103D01*
X123130499Y-72738695D01*
X123130500Y-72738693D01*
X123130500Y-72561306D01*
X123130499Y-72561304D01*
X123095896Y-72387341D01*
X123095893Y-72387332D01*
X123028016Y-72223459D01*
X123028009Y-72223446D01*
X122929464Y-72075965D01*
X122929461Y-72075961D01*
X122804038Y-71950538D01*
X122804034Y-71950535D01*
X122656553Y-71851990D01*
X122656540Y-71851983D01*
X122492667Y-71784106D01*
X122492658Y-71784103D01*
X122318694Y-71749500D01*
X122318691Y-71749500D01*
X122141309Y-71749500D01*
X122141306Y-71749500D01*
X121967341Y-71784103D01*
X121967332Y-71784106D01*
X121803459Y-71851983D01*
X121803446Y-71851990D01*
X121655965Y-71950535D01*
X121655961Y-71950538D01*
X121530538Y-72075961D01*
X121530535Y-72075965D01*
X121431990Y-72223446D01*
X121431983Y-72223459D01*
X121364106Y-72387332D01*
X121364103Y-72387341D01*
X121329500Y-72561304D01*
X121329500Y-72738695D01*
X121364103Y-72912658D01*
X121364106Y-72912667D01*
X121431983Y-73076540D01*
X121431990Y-73076552D01*
X121518102Y-73205426D01*
X121538980Y-73272103D01*
X121539000Y-73274317D01*
X121539000Y-79031943D01*
X121539000Y-79168057D01*
X121539000Y-79168059D01*
X121538999Y-79168059D01*
X121565553Y-79301551D01*
X121565556Y-79301561D01*
X121617642Y-79427309D01*
X121617644Y-79427312D01*
X121693263Y-79540485D01*
X121693269Y-79540492D01*
X124212681Y-82059902D01*
X124246166Y-82121225D01*
X124249000Y-82147583D01*
X124249000Y-83604766D01*
X124229315Y-83671805D01*
X124176511Y-83717560D01*
X124107353Y-83727504D01*
X124043797Y-83698479D01*
X124037319Y-83692447D01*
X123893629Y-83548757D01*
X123893622Y-83548751D01*
X123716782Y-83413058D01*
X123716780Y-83413057D01*
X123716774Y-83413052D01*
X123523726Y-83301595D01*
X123523722Y-83301593D01*
X123317790Y-83216293D01*
X123317783Y-83216291D01*
X123317781Y-83216290D01*
X123102463Y-83158596D01*
X123102457Y-83158595D01*
X123102452Y-83158594D01*
X122881466Y-83129501D01*
X122881463Y-83129500D01*
X122881457Y-83129500D01*
X122658543Y-83129500D01*
X122658537Y-83129500D01*
X122658533Y-83129501D01*
X122437547Y-83158594D01*
X122437540Y-83158595D01*
X122437537Y-83158596D01*
X122222219Y-83216290D01*
X122222209Y-83216293D01*
X122016277Y-83301593D01*
X122016273Y-83301595D01*
X121823226Y-83413052D01*
X121823217Y-83413058D01*
X121646377Y-83548751D01*
X121646370Y-83548757D01*
X121488757Y-83706370D01*
X121488751Y-83706377D01*
X121353058Y-83883217D01*
X121353052Y-83883226D01*
X121241595Y-84076273D01*
X121241593Y-84076277D01*
X121156293Y-84282209D01*
X121156290Y-84282219D01*
X121098597Y-84497534D01*
X121098594Y-84497547D01*
X121069501Y-84718533D01*
X121069500Y-84718549D01*
X117300500Y-84718549D01*
X117300500Y-69391304D01*
X119849500Y-69391304D01*
X119849500Y-69568695D01*
X119884103Y-69742658D01*
X119884106Y-69742667D01*
X119951983Y-69906540D01*
X119951990Y-69906553D01*
X120050535Y-70054034D01*
X120050538Y-70054038D01*
X120175961Y-70179461D01*
X120175965Y-70179464D01*
X120323446Y-70278009D01*
X120323459Y-70278016D01*
X120446363Y-70328923D01*
X120487334Y-70345894D01*
X120487336Y-70345894D01*
X120487341Y-70345896D01*
X120661304Y-70380499D01*
X120661307Y-70380500D01*
X120661309Y-70380500D01*
X120838693Y-70380500D01*
X120838694Y-70380499D01*
X120896682Y-70368964D01*
X121012658Y-70345896D01*
X121012661Y-70345894D01*
X121012666Y-70345894D01*
X121176547Y-70278013D01*
X121324035Y-70179464D01*
X121449464Y-70054035D01*
X121548013Y-69906547D01*
X121615894Y-69742666D01*
X121650500Y-69568691D01*
X121650500Y-69391309D01*
X121650500Y-69391306D01*
X121650499Y-69391304D01*
X126229500Y-69391304D01*
X126229500Y-69568695D01*
X126264103Y-69742658D01*
X126264106Y-69742667D01*
X126331983Y-69906540D01*
X126331990Y-69906553D01*
X126430535Y-70054034D01*
X126430538Y-70054038D01*
X126555961Y-70179461D01*
X126555965Y-70179464D01*
X126703446Y-70278009D01*
X126703459Y-70278016D01*
X126826363Y-70328923D01*
X126867334Y-70345894D01*
X126867336Y-70345894D01*
X126867341Y-70345896D01*
X127041304Y-70380499D01*
X127041307Y-70380500D01*
X127041309Y-70380500D01*
X127218693Y-70380500D01*
X127218694Y-70380499D01*
X127276682Y-70368964D01*
X127392658Y-70345896D01*
X127392661Y-70345894D01*
X127392666Y-70345894D01*
X127556547Y-70278013D01*
X127704035Y-70179464D01*
X127829464Y-70054035D01*
X127928013Y-69906547D01*
X127995894Y-69742666D01*
X128030500Y-69568691D01*
X128030500Y-69391309D01*
X128030500Y-69391306D01*
X128030499Y-69391304D01*
X129849500Y-69391304D01*
X129849500Y-69568695D01*
X129884103Y-69742658D01*
X129884106Y-69742667D01*
X129951983Y-69906540D01*
X129951990Y-69906553D01*
X130050535Y-70054034D01*
X130050538Y-70054038D01*
X130175961Y-70179461D01*
X130175965Y-70179464D01*
X130323446Y-70278009D01*
X130323459Y-70278016D01*
X130446363Y-70328923D01*
X130487334Y-70345894D01*
X130487336Y-70345894D01*
X130487341Y-70345896D01*
X130661304Y-70380499D01*
X130661307Y-70380500D01*
X130661309Y-70380500D01*
X130838693Y-70380500D01*
X130838694Y-70380499D01*
X130896682Y-70368964D01*
X131012658Y-70345896D01*
X131012661Y-70345894D01*
X131012666Y-70345894D01*
X131176547Y-70278013D01*
X131324035Y-70179464D01*
X131449464Y-70054035D01*
X131548013Y-69906547D01*
X131615894Y-69742666D01*
X131642612Y-69608349D01*
X131651100Y-69565675D01*
X131683485Y-69503764D01*
X131684980Y-69502241D01*
X133289903Y-67897319D01*
X133351226Y-67863834D01*
X133377584Y-67861000D01*
X146195682Y-67861000D01*
X146262721Y-67880685D01*
X146264573Y-67881898D01*
X146393446Y-67968009D01*
X146393459Y-67968016D01*
X146516363Y-68018923D01*
X146557334Y-68035894D01*
X146557336Y-68035894D01*
X146557341Y-68035896D01*
X146731304Y-68070499D01*
X146731307Y-68070500D01*
X146731309Y-68070500D01*
X146908693Y-68070500D01*
X146908694Y-68070499D01*
X146966682Y-68058964D01*
X147082658Y-68035896D01*
X147082661Y-68035894D01*
X147082666Y-68035894D01*
X147246547Y-67968013D01*
X147394035Y-67869464D01*
X147519464Y-67744035D01*
X147618013Y-67596547D01*
X147685894Y-67432666D01*
X147686821Y-67428009D01*
X147720499Y-67258695D01*
X147720500Y-67258693D01*
X147720500Y-67081306D01*
X147720499Y-67081304D01*
X147685896Y-66907341D01*
X147685893Y-66907332D01*
X147618016Y-66743459D01*
X147618009Y-66743446D01*
X147519464Y-66595965D01*
X147519461Y-66595961D01*
X147394038Y-66470538D01*
X147394034Y-66470535D01*
X147246553Y-66371990D01*
X147246540Y-66371983D01*
X147082667Y-66304106D01*
X147082658Y-66304103D01*
X146908694Y-66269500D01*
X146908691Y-66269500D01*
X146731309Y-66269500D01*
X146731306Y-66269500D01*
X146557341Y-66304103D01*
X146557332Y-66304106D01*
X146393459Y-66371983D01*
X146393446Y-66371990D01*
X146264573Y-66458102D01*
X146197896Y-66478980D01*
X146195682Y-66479000D01*
X132971940Y-66479000D01*
X132838448Y-66505553D01*
X132838438Y-66505556D01*
X132712690Y-66557642D01*
X132712687Y-66557644D01*
X132599514Y-66633263D01*
X132599507Y-66633269D01*
X130677880Y-68554896D01*
X130616557Y-68588381D01*
X130614391Y-68588832D01*
X130487340Y-68614104D01*
X130487332Y-68614106D01*
X130323459Y-68681983D01*
X130323446Y-68681990D01*
X130175965Y-68780535D01*
X130175961Y-68780538D01*
X130050538Y-68905961D01*
X130050535Y-68905965D01*
X129951990Y-69053446D01*
X129951983Y-69053459D01*
X129884106Y-69217332D01*
X129884103Y-69217341D01*
X129849500Y-69391304D01*
X128030499Y-69391304D01*
X127995896Y-69217341D01*
X127995893Y-69217332D01*
X127928016Y-69053459D01*
X127928009Y-69053446D01*
X127831898Y-68909607D01*
X127811020Y-68842930D01*
X127811000Y-68840716D01*
X127811000Y-63967583D01*
X127830685Y-63900544D01*
X127847314Y-63879907D01*
X129703082Y-62024139D01*
X129764404Y-61990655D01*
X129834096Y-61995639D01*
X129890029Y-62037511D01*
X129914446Y-62102975D01*
X129912379Y-62136012D01*
X129879500Y-62301304D01*
X129879500Y-62478695D01*
X129914103Y-62652658D01*
X129914106Y-62652667D01*
X129981983Y-62816540D01*
X129981990Y-62816553D01*
X130080535Y-62964034D01*
X130080538Y-62964038D01*
X130205961Y-63089461D01*
X130205965Y-63089464D01*
X130353446Y-63188009D01*
X130353459Y-63188016D01*
X130476363Y-63238923D01*
X130517334Y-63255894D01*
X130517336Y-63255894D01*
X130517341Y-63255896D01*
X130691304Y-63290499D01*
X130691307Y-63290500D01*
X130691309Y-63290500D01*
X130868693Y-63290500D01*
X130868694Y-63290499D01*
X130926682Y-63278964D01*
X131042658Y-63255896D01*
X131042661Y-63255894D01*
X131042666Y-63255894D01*
X131206547Y-63188013D01*
X131354035Y-63089464D01*
X131354038Y-63089461D01*
X131376181Y-63067319D01*
X131437504Y-63033834D01*
X131463862Y-63031000D01*
X142765682Y-63031000D01*
X142832721Y-63050685D01*
X142834573Y-63051898D01*
X142963446Y-63138009D01*
X142963459Y-63138016D01*
X143084155Y-63188009D01*
X143127334Y-63205894D01*
X143127336Y-63205894D01*
X143127341Y-63205896D01*
X143301304Y-63240499D01*
X143301307Y-63240500D01*
X143301309Y-63240500D01*
X143478693Y-63240500D01*
X143478694Y-63240499D01*
X143536682Y-63228964D01*
X143652658Y-63205896D01*
X143652661Y-63205894D01*
X143652666Y-63205894D01*
X143816547Y-63138013D01*
X143964035Y-63039464D01*
X144089464Y-62914035D01*
X144188013Y-62766547D01*
X144255894Y-62602666D01*
X144265120Y-62556287D01*
X144278964Y-62486682D01*
X144290500Y-62428691D01*
X144290500Y-62251309D01*
X144290500Y-62251306D01*
X144290499Y-62251304D01*
X144255896Y-62077341D01*
X144255893Y-62077332D01*
X144188016Y-61913459D01*
X144188009Y-61913446D01*
X144089464Y-61765965D01*
X144089461Y-61765961D01*
X143964038Y-61640538D01*
X143964034Y-61640535D01*
X143816553Y-61541990D01*
X143816540Y-61541983D01*
X143652667Y-61474106D01*
X143652658Y-61474103D01*
X143478694Y-61439500D01*
X143478691Y-61439500D01*
X143301309Y-61439500D01*
X143301306Y-61439500D01*
X143127341Y-61474103D01*
X143127332Y-61474106D01*
X142963459Y-61541983D01*
X142963446Y-61541990D01*
X142834573Y-61628102D01*
X142767896Y-61648980D01*
X142765682Y-61649000D01*
X131329487Y-61649000D01*
X131262448Y-61629315D01*
X131260596Y-61628102D01*
X131206547Y-61591987D01*
X131206544Y-61591985D01*
X131206543Y-61591985D01*
X131206542Y-61591984D01*
X131042667Y-61524106D01*
X131042658Y-61524103D01*
X130868694Y-61489500D01*
X130868691Y-61489500D01*
X130691309Y-61489500D01*
X130691306Y-61489500D01*
X130526012Y-61522379D01*
X130456421Y-61516152D01*
X130401243Y-61473289D01*
X130377999Y-61407399D01*
X130394067Y-61339402D01*
X130414140Y-61313081D01*
X131265687Y-60461534D01*
X132315437Y-59411783D01*
X132376758Y-59378300D01*
X132446450Y-59383284D01*
X132502383Y-59425156D01*
X132524733Y-59475275D01*
X132544103Y-59572658D01*
X132544106Y-59572667D01*
X132611983Y-59736540D01*
X132611990Y-59736553D01*
X132710535Y-59884034D01*
X132710538Y-59884038D01*
X132835961Y-60009461D01*
X132835965Y-60009464D01*
X132983446Y-60108009D01*
X132983459Y-60108016D01*
X133106363Y-60158923D01*
X133147334Y-60175894D01*
X133147336Y-60175894D01*
X133147341Y-60175896D01*
X133321304Y-60210499D01*
X133321307Y-60210500D01*
X133321309Y-60210500D01*
X133498693Y-60210500D01*
X133498694Y-60210499D01*
X133556682Y-60198964D01*
X133672658Y-60175896D01*
X133672661Y-60175894D01*
X133672666Y-60175894D01*
X133812535Y-60117958D01*
X133836540Y-60108016D01*
X133836540Y-60108015D01*
X133836547Y-60108013D01*
X133984035Y-60009464D01*
X134109464Y-59884035D01*
X134208013Y-59736547D01*
X134275894Y-59572666D01*
X134295267Y-59475275D01*
X134306134Y-59420640D01*
X134338519Y-59358729D01*
X134340014Y-59357206D01*
X135929902Y-57767319D01*
X135991225Y-57733834D01*
X136017583Y-57731000D01*
X146945456Y-57731000D01*
X147012495Y-57750685D01*
X147048558Y-57786110D01*
X147060532Y-57804030D01*
X147060538Y-57804038D01*
X147185961Y-57929461D01*
X147185965Y-57929464D01*
X147333446Y-58028009D01*
X147333459Y-58028016D01*
X147456363Y-58078923D01*
X147497334Y-58095894D01*
X147497336Y-58095894D01*
X147497341Y-58095896D01*
X147671304Y-58130499D01*
X147671307Y-58130500D01*
X147671309Y-58130500D01*
X147848693Y-58130500D01*
X147848694Y-58130499D01*
X147906682Y-58118964D01*
X148022658Y-58095896D01*
X148022661Y-58095894D01*
X148022666Y-58095894D01*
X148186547Y-58028013D01*
X148334035Y-57929464D01*
X148459464Y-57804035D01*
X148558013Y-57656547D01*
X148625894Y-57492666D01*
X148660500Y-57318691D01*
X148660500Y-57141309D01*
X148660500Y-57141306D01*
X148660499Y-57141304D01*
X148625896Y-56967341D01*
X148625893Y-56967332D01*
X148558016Y-56803459D01*
X148558009Y-56803446D01*
X148459464Y-56655965D01*
X148459461Y-56655961D01*
X148334038Y-56530538D01*
X148334034Y-56530535D01*
X148186553Y-56431990D01*
X148186540Y-56431983D01*
X148022667Y-56364106D01*
X148022658Y-56364103D01*
X147848694Y-56329500D01*
X147848691Y-56329500D01*
X147671309Y-56329500D01*
X147671307Y-56329500D01*
X147632644Y-56337191D01*
X147585256Y-56346617D01*
X147561066Y-56349000D01*
X145549816Y-56349000D01*
X145482777Y-56329315D01*
X145437022Y-56276511D01*
X145427078Y-56207353D01*
X145428199Y-56200809D01*
X145450499Y-56088695D01*
X145450500Y-56088693D01*
X145450500Y-55911306D01*
X145450499Y-55911304D01*
X145415896Y-55737341D01*
X145415893Y-55737332D01*
X145348016Y-55573459D01*
X145348009Y-55573446D01*
X145249464Y-55425965D01*
X145249461Y-55425961D01*
X145124038Y-55300538D01*
X145124034Y-55300535D01*
X144976553Y-55201990D01*
X144976540Y-55201983D01*
X144812667Y-55134106D01*
X144812658Y-55134103D01*
X144638694Y-55099500D01*
X144638691Y-55099500D01*
X144461309Y-55099500D01*
X144461306Y-55099500D01*
X144287341Y-55134103D01*
X144287332Y-55134106D01*
X144123459Y-55201983D01*
X144123446Y-55201990D01*
X143994573Y-55288102D01*
X143927896Y-55308980D01*
X143925682Y-55309000D01*
X134681938Y-55309000D01*
X134567438Y-55331776D01*
X134567437Y-55331776D01*
X134555998Y-55334051D01*
X134548440Y-55335555D01*
X134548439Y-55335555D01*
X134422694Y-55387640D01*
X134422681Y-55387647D01*
X134309513Y-55463264D01*
X134309509Y-55463267D01*
X126583266Y-63189510D01*
X126572318Y-63205896D01*
X126515788Y-63290500D01*
X126507644Y-63302689D01*
X126507643Y-63302689D01*
X126455555Y-63428442D01*
X126455553Y-63428448D01*
X126429000Y-63561939D01*
X126429000Y-68870647D01*
X126409315Y-68937686D01*
X126408102Y-68939538D01*
X126331988Y-69053449D01*
X126331987Y-69053452D01*
X126264106Y-69217332D01*
X126264103Y-69217341D01*
X126229500Y-69391304D01*
X121650499Y-69391304D01*
X121615896Y-69217341D01*
X121615893Y-69217332D01*
X121548016Y-69053459D01*
X121548009Y-69053446D01*
X121449464Y-68905965D01*
X121449461Y-68905961D01*
X121324038Y-68780538D01*
X121324034Y-68780535D01*
X121176553Y-68681990D01*
X121176540Y-68681983D01*
X121012667Y-68614106D01*
X121012658Y-68614103D01*
X120838694Y-68579500D01*
X120838691Y-68579500D01*
X120661309Y-68579500D01*
X120661306Y-68579500D01*
X120487341Y-68614103D01*
X120487332Y-68614106D01*
X120323459Y-68681983D01*
X120323446Y-68681990D01*
X120175965Y-68780535D01*
X120175961Y-68780538D01*
X120050538Y-68905961D01*
X120050535Y-68905965D01*
X119951990Y-69053446D01*
X119951983Y-69053459D01*
X119884106Y-69217332D01*
X119884103Y-69217341D01*
X119849500Y-69391304D01*
X117300500Y-69391304D01*
X117300500Y-58775602D01*
X117320185Y-58708563D01*
X117372989Y-58662808D01*
X117442147Y-58652864D01*
X117505703Y-58681889D01*
X117536064Y-58724001D01*
X117536954Y-58723573D01*
X117694432Y-59050579D01*
X117694434Y-59050582D01*
X117885685Y-59354956D01*
X118109812Y-59636003D01*
X118363997Y-59890188D01*
X118645044Y-60114315D01*
X118949418Y-60305566D01*
X119273292Y-60461536D01*
X119528119Y-60550703D01*
X119612580Y-60580258D01*
X119612592Y-60580262D01*
X119963052Y-60660252D01*
X120320260Y-60700499D01*
X120320261Y-60700500D01*
X120320264Y-60700500D01*
X120679739Y-60700500D01*
X120679739Y-60700499D01*
X121036948Y-60660252D01*
X121387408Y-60580262D01*
X121726708Y-60461536D01*
X122050582Y-60305566D01*
X122354956Y-60114315D01*
X122636003Y-59890188D01*
X122890188Y-59636003D01*
X123114315Y-59354956D01*
X123305566Y-59050582D01*
X123461536Y-58726708D01*
X123580262Y-58387408D01*
X123660252Y-58036948D01*
X123700500Y-57679736D01*
X123700500Y-57320264D01*
X123660252Y-56963052D01*
X123580262Y-56612592D01*
X123461536Y-56273292D01*
X123305566Y-55949418D01*
X123114315Y-55645044D01*
X122890188Y-55363997D01*
X122636003Y-55109812D01*
X122354956Y-54885685D01*
X122050582Y-54694434D01*
X122050579Y-54694432D01*
X121723573Y-54536954D01*
X121724123Y-54535809D01*
X121673759Y-54495240D01*
X121651682Y-54428950D01*
X121668948Y-54361247D01*
X121720076Y-54313627D01*
X121775602Y-54300500D01*
X168224398Y-54300500D01*
X168291437Y-54320185D01*
G37*
G04 #@! TD.AperFunction*
M02*
