M48
; DRILL file {KiCad 9.0.0} date 2025-08-15T17:43:09+0530
; FORMAT={-:-/ absolute / metric / decimal}
; #@! TF.CreationDate,2025-08-15T17:43:09+05:30
; #@! TF.GenerationSoftware,Kicad,Pcbnew,9.0.0
; #@! TF.FileFunction,Plated,1,2,PTH
FMAT,2
METRIC
; #@! TA.AperFunction,Plated,PTH,ViaDrill
T1C0.400
; #@! TA.AperFunction,Plated,PTH,ComponentDrill
T2C1.000
; #@! TA.AperFunction,Plated,PTH,ComponentDrill
T3C1.600
; #@! TA.AperFunction,Plated,PTH,ComponentDrill
T4C2.700
%
G90
G05
T1
X120.75Y-69.48
X122.23Y-72.65
X125.58Y-72.65
X127.13Y-69.48
X128.64Y-72.65
X128.76Y-97.84
X130.75Y-69.48
X130.78Y-62.39
X131.86Y-72.65
X133.18Y-100.71
X133.41Y-59.31
X135.16Y-72.65
X136.81Y-102.86
X140.97Y-105.89
X142.29Y-72.26
X143.39Y-62.34
X144.55Y-56.0
X145.25Y-72.26
X146.5Y-77.41
X146.82Y-67.17
X147.76Y-57.23
X148.45Y-72.26
X151.79Y-72.26
X154.4Y-80.23
X158.67Y-75.22
X159.24Y-66.63
X162.31Y-77.44
X164.02Y-76.54
T2
X168.21Y-62.45
X168.21Y-64.99
X168.21Y-67.53
X168.21Y-70.07
X168.21Y-72.61
X168.21Y-75.15
X168.21Y-77.69
X168.21Y-80.23
X168.21Y-82.77
X168.21Y-85.31
X168.21Y-87.85
X168.21Y-90.39
X168.21Y-92.93
X168.21Y-95.47
X168.21Y-98.01
X168.21Y-100.55
X168.21Y-103.09
X168.21Y-105.63
X168.21Y-108.17
X168.21Y-110.71
X170.75Y-62.45
X170.75Y-64.99
X170.75Y-67.53
X170.75Y-70.07
X170.75Y-72.61
X170.75Y-75.15
X170.75Y-77.69
X170.75Y-80.23
X170.75Y-82.77
X170.75Y-85.31
X170.75Y-87.85
X170.75Y-90.39
X170.75Y-92.93
X170.75Y-95.47
X170.75Y-98.01
X170.75Y-100.55
X170.75Y-103.09
X170.75Y-105.63
X170.75Y-108.17
X170.75Y-110.71
T3
X122.77Y-84.83
X122.77Y-89.91
T4
X120.5Y-57.5
X120.5Y-115.5
X169.5Y-57.5
X169.5Y-115.5
M30
