G04 #@! TF.GenerationSoftware,KiCad,Pcbnew,9.0.0*
G04 #@! TF.CreationDate,2025-08-15T17:42:36+05:30*
G04 #@! TF.ProjectId,MAKEEN_Keypad_Test_PCB,4d414b45-454e-45f4-9b65-797061645f54,V1*
G04 #@! TF.SameCoordinates,Original*
G04 #@! TF.FileFunction,Soldermask,Bot*
G04 #@! TF.FilePolarity,Negative*
%FSLAX46Y46*%
G04 Gerber Fmt 4.6, Leading zero omitted, Abs format (unit mm)*
G04 Created by KiCad (PCBNEW 9.0.0) date 2025-08-15 17:42:36*
%MOMM*%
%LPD*%
G01*
G04 APERTURE LIST*
G04 Aperture macros list*
%AMRoundRect*
0 Rectangle with rounded corners*
0 $1 Rounding radius*
0 $2 $3 $4 $5 $6 $7 $8 $9 X,Y pos of 4 corners*
0 Add a 4 corners polygon primitive as box body*
4,1,4,$2,$3,$4,$5,$6,$7,$8,$9,$2,$3,0*
0 Add four circle primitives for the rounded corners*
1,1,$1+$1,$2,$3*
1,1,$1+$1,$4,$5*
1,1,$1+$1,$6,$7*
1,1,$1+$1,$8,$9*
0 Add four rect primitives between the rounded corners*
20,1,$1+$1,$2,$3,$4,$5,0*
20,1,$1+$1,$4,$5,$6,$7,0*
20,1,$1+$1,$6,$7,$8,$9,0*
20,1,$1+$1,$8,$9,$2,$3,0*%
G04 Aperture macros list end*
%ADD10C,2.480000*%
%ADD11C,5.480000*%
%ADD12RoundRect,0.040000X0.850000X0.850000X-0.850000X0.850000X-0.850000X-0.850000X0.850000X-0.850000X0*%
%ADD13O,1.780000X1.780000*%
G04 APERTURE END LIST*
D10*
X122770000Y-84830000D03*
X122770000Y-89910000D03*
D11*
X169500000Y-115500000D03*
X120500000Y-57500000D03*
X169500000Y-57500000D03*
X120500000Y-115500000D03*
D12*
X168210000Y-62450000D03*
D13*
X170750000Y-62450000D03*
X168210000Y-64990000D03*
X170750000Y-64990000D03*
X168210000Y-67530000D03*
X170750000Y-67530000D03*
X168210000Y-70070000D03*
X170750000Y-70070000D03*
X168210000Y-72610000D03*
X170750000Y-72610000D03*
X168210000Y-75150000D03*
X170750000Y-75150000D03*
X168210000Y-77690000D03*
X170750000Y-77690000D03*
X168210000Y-80230000D03*
X170750000Y-80230000D03*
X168210000Y-82770000D03*
X170750000Y-82770000D03*
X168210000Y-85310000D03*
X170750000Y-85310000D03*
X168210000Y-87850000D03*
X170750000Y-87850000D03*
X168210000Y-90390000D03*
X170750000Y-90390000D03*
X168210000Y-92930000D03*
X170750000Y-92930000D03*
X168210000Y-95470000D03*
X170750000Y-95470000D03*
X168210000Y-98010000D03*
X170750000Y-98010000D03*
X168210000Y-100550000D03*
X170750000Y-100550000D03*
X168210000Y-103090000D03*
X170750000Y-103090000D03*
X168210000Y-105630000D03*
X170750000Y-105630000D03*
X168210000Y-108170000D03*
X170750000Y-108170000D03*
X168210000Y-110710000D03*
X170750000Y-110710000D03*
M02*
